%TF.GenerationSoftware,KiCad,Pcbnew,10.0.0*%
%TF.CreationDate,2026-07-07T19:25:29+01:00*%
%TF.ProjectId,On-Board Glow,4f6e2d42-6f61-4726-9420-476c6f772e6b,rev?*%
%TF.SameCoordinates,Original*%
%TF.FileFunction,Copper,L1,Top*%
%TF.FilePolarity,Positive*%
%FSLAX46Y46*%
G04 Gerber Fmt 4.6, Leading zero omitted, Abs format (unit mm)*
G04 Created by KiCad (PCBNEW 10.0.0) date 2026-07-07 19:25:29*
%MOMM*%
%LPD*%
G01*
G04 APERTURE LIST*
G04 Aperture macros list*
%AMRoundRect*
0 Rectangle with rounded corners*
0 $1 Rounding radius*
0 $2 $3 $4 $5 $6 $7 $8 $9 X,Y pos of 4 corners*
0 Add a 4 corners polygon primitive as box body*
4,1,4,$2,$3,$4,$5,$6,$7,$8,$9,$2,$3,0*
0 Add four circle primitives for the rounded corners*
1,1,$1+$1,$2,$3*
1,1,$1+$1,$4,$5*
1,1,$1+$1,$6,$7*
1,1,$1+$1,$8,$9*
0 Add four rect primitives between the rounded corners*
20,1,$1+$1,$2,$3,$4,$5,0*
20,1,$1+$1,$4,$5,$6,$7,0*
20,1,$1+$1,$6,$7,$8,$9,0*
20,1,$1+$1,$8,$9,$2,$3,0*%
G04 Aperture macros list end*
%TA.AperFunction,SMDPad,CuDef*%
%ADD10RoundRect,0.150000X1.350000X0.350000X-1.350000X0.350000X-1.350000X-0.350000X1.350000X-0.350000X0*%
%TD*%
%TA.AperFunction,SMDPad,CuDef*%
%ADD11RoundRect,0.100000X-0.130000X-0.100000X0.130000X-0.100000X0.130000X0.100000X-0.130000X0.100000X0*%
%TD*%
%TA.AperFunction,SMDPad,CuDef*%
%ADD12RoundRect,0.100000X0.130000X0.100000X-0.130000X0.100000X-0.130000X-0.100000X0.130000X-0.100000X0*%
%TD*%
%TA.AperFunction,SMDPad,CuDef*%
%ADD13RoundRect,0.243600X-0.901400X-0.771400X0.901400X-0.771400X0.901400X0.771400X-0.901400X0.771400X0*%
%TD*%
%TA.AperFunction,SMDPad,CuDef*%
%ADD14RoundRect,0.091200X-0.608800X-0.288800X0.608800X-0.288800X0.608800X0.288800X-0.608800X0.288800X0*%
%TD*%
%TA.AperFunction,SMDPad,CuDef*%
%ADD15RoundRect,0.190000X-0.510000X-0.190000X0.510000X-0.190000X0.510000X0.190000X-0.510000X0.190000X0*%
%TD*%
%TA.AperFunction,SMDPad,CuDef*%
%ADD16C,0.298000*%
%TD*%
%TA.AperFunction,SMDPad,CuDef*%
%ADD17R,0.400000X1.000000*%
%TD*%
%TA.AperFunction,SMDPad,CuDef*%
%ADD18R,2.000000X1.300000*%
%TD*%
%TA.AperFunction,SMDPad,CuDef*%
%ADD19C,0.500000*%
%TD*%
%TA.AperFunction,SMDPad,CuDef*%
%ADD20RoundRect,0.097500X-0.227500X0.402500X-0.227500X-0.402500X0.227500X-0.402500X0.227500X0.402500X0*%
%TD*%
%TA.AperFunction,BGAPad,CuDef*%
%ADD21C,0.200000*%
%TD*%
%TA.AperFunction,SMDPad,CuDef*%
%ADD22C,0.242000*%
%TD*%
%TA.AperFunction,SMDPad,CuDef*%
%ADD23R,0.660000X0.420000*%
%TD*%
%TA.AperFunction,SMDPad,CuDef*%
%ADD24R,0.470000X0.420000*%
%TD*%
%TA.AperFunction,SMDPad,CuDef*%
%ADD25R,1.830000X2.370000*%
%TD*%
%TA.AperFunction,SMDPad,CuDef*%
%ADD26R,0.570000X0.545000*%
%TD*%
%TA.AperFunction,SMDPad,CuDef*%
%ADD27RoundRect,0.100000X-0.100000X0.130000X-0.100000X-0.130000X0.100000X-0.130000X0.100000X0.130000X0*%
%TD*%
%TA.AperFunction,ViaPad*%
%ADD28C,0.400000*%
%TD*%
%TA.AperFunction,ViaPad*%
%ADD29C,0.600000*%
%TD*%
%TA.AperFunction,ViaPad*%
%ADD30C,0.500000*%
%TD*%
%TA.AperFunction,Conductor*%
%ADD31C,0.250000*%
%TD*%
%TA.AperFunction,Conductor*%
%ADD32C,0.200000*%
%TD*%
%TA.AperFunction,Conductor*%
%ADD33C,0.150000*%
%TD*%
G04 APERTURE END LIST*
D10*
%TO.P,J1,1,Pin_1_1*%
%TO.N,PWM_INPUT*%
X21980000Y-24080000D03*
%TO.P,J1,2,Pin_2_2*%
%TO.N,+BATT*%
X21980000Y-22880000D03*
%TO.P,J1,3,Pin_3_3*%
%TO.N,GNDPWR*%
X21980000Y-21680000D03*
%TD*%
D11*
%TO.P,R5,1*%
%TO.N,GND*%
X20780000Y-28870000D03*
%TO.P,R5,2*%
%TO.N,Net-(D1-K)*%
X21420000Y-28870000D03*
%TD*%
D12*
%TO.P,R4,1*%
%TO.N,Current_READ*%
X27745000Y-24000000D03*
%TO.P,R4,2*%
%TO.N,Net-(IC2-OUT)*%
X27105000Y-24000000D03*
%TD*%
D13*
%TO.P,R1,1*%
%TO.N,+BATT*%
X32165000Y-21465000D03*
D14*
%TO.P,R1,2*%
%TO.N,Net-(IC2-RS+)*%
X31720000Y-23370000D03*
D15*
%TO.P,R1,3*%
%TO.N,Net-(IC2-RS-)*%
X38580000Y-20830000D03*
D13*
%TO.P,R1,4*%
%TO.N,Net-(J3-Pin_1)*%
X38135000Y-22735000D03*
%TD*%
D12*
%TO.P,R9,1*%
%TO.N,+BATT*%
X21420000Y-25450000D03*
%TO.P,R9,2*%
%TO.N,PWM_INPUT*%
X20780000Y-25450000D03*
%TD*%
D16*
%TO.P,IC2,A1,RS+_A1*%
%TO.N,Net-(IC2-RS+)*%
X28425000Y-21825000D03*
%TO.P,IC2,A2,RS-_A2*%
%TO.N,Net-(IC2-RS-)*%
X28425000Y-22325000D03*
%TO.P,IC2,B1,GND_B1*%
%TO.N,GNDPWR*%
X27925000Y-21825000D03*
%TO.P,IC2,B2,OUT_B2*%
%TO.N,Net-(IC2-OUT)*%
X27925000Y-22325000D03*
%TD*%
D11*
%TO.P,C2,1*%
%TO.N,Current_READ*%
X28555000Y-24000000D03*
%TO.P,C2,2*%
%TO.N,GNDPWR*%
X29195000Y-24000000D03*
%TD*%
D17*
%TO.P,IC4,1,IN-_1*%
%TO.N,GNDPWR*%
X30800000Y-29000000D03*
%TO.P,IC4,2,GND_1_2*%
X31750000Y-29000000D03*
%TO.P,IC4,3,GND_2_3*%
X32700000Y-29000000D03*
%TO.P,IC4,4,VDD_4*%
%TO.N,+BATT*%
X32700000Y-26200000D03*
%TO.P,IC4,5,OUT_5*%
%TO.N,PWM_GATE*%
X31750000Y-26200000D03*
%TO.P,IC4,6,IN+_6*%
%TO.N,MOSFET_OUT*%
X30800000Y-26200000D03*
D18*
%TO.P,IC4,7,EP_7*%
%TO.N,GNDPWR*%
X31750000Y-27600000D03*
%TD*%
D11*
%TO.P,R7,1*%
%TO.N,PWM_OUTPUT*%
X20780000Y-28100000D03*
%TO.P,R7,2*%
%TO.N,Net-(D1-K)*%
X21420000Y-28100000D03*
%TD*%
D19*
%TO.P,J2,1,Pin_1_1*%
%TO.N,SWIM*%
X24950000Y-29125000D03*
%TO.P,J2,2,Pin_2_2*%
%TO.N,unconnected-(J2-Pin_2-Pad2)*%
X25650000Y-29125000D03*
%TO.P,J2,3,Pin_3_3*%
%TO.N,GND*%
X26350000Y-29125000D03*
%TO.P,J2,4,Pin_4_4*%
%TO.N,+3V3*%
X27050000Y-29125000D03*
%TO.P,J2,5,Pin_5_5*%
%TO.N,USART_RX*%
X27750000Y-29125000D03*
%TO.P,J2,6,Pin_6_6*%
%TO.N,USART_TX*%
X28450000Y-29125000D03*
%TD*%
D20*
%TO.P,J5,1,Pin_1_1*%
%TO.N,Net-(J5-Pin_1)*%
X23725000Y-28925000D03*
%TO.P,J5,2,Pin_2_2*%
%TO.N,Net-(IC1-PB7)*%
X22925000Y-28925000D03*
%TD*%
D21*
%TO.P,Q1,1,G_1*%
%TO.N,+3V3*%
X21182500Y-26200000D03*
%TO.P,Q1,2,S_2*%
%TO.N,PWM_OUTPUT*%
X21182500Y-26600000D03*
%TO.P,Q1,3,S_3*%
X20782500Y-26600000D03*
%TO.P,Q1,4,D_4*%
%TO.N,PWM_INPUT*%
X20782500Y-26200000D03*
%TD*%
D22*
%TO.P,IC1,A1,PC1_A1*%
%TO.N,unconnected-(IC1-PC1-PadA1)*%
X23850000Y-27100000D03*
%TO.P,IC1,A2,PC3_A2*%
%TO.N,unconnected-(IC1-PC3-PadA2)*%
X23850000Y-26700000D03*
%TO.P,IC1,A3,PC5_A3*%
%TO.N,unconnected-(IC1-PC5-PadA3)*%
X23850000Y-26300000D03*
%TO.P,IC1,A4,PA0_A4*%
%TO.N,SWIM*%
X23850000Y-25900000D03*
%TO.P,IC1,B1,PC0_B1*%
%TO.N,unconnected-(IC1-PC0-PadB1)*%
X24250000Y-27100000D03*
%TO.P,IC1,B2,PC2_B2*%
%TO.N,unconnected-(IC1-PC2-PadB2)*%
X24250000Y-26700000D03*
%TO.P,IC1,B3,PC6_B3*%
%TO.N,unconnected-(IC1-PC6-PadB3)*%
X24250000Y-26300000D03*
%TO.P,IC1,B4,PA2_B4*%
%TO.N,unconnected-(IC1-PA2-PadB4)*%
X24250000Y-25900000D03*
%TO.P,IC1,C1,PD4_C1*%
%TO.N,unconnected-(IC1-PD4-PadC1)*%
X24650000Y-27100000D03*
%TO.P,IC1,C2,PC4_C2*%
%TO.N,unconnected-(IC1-PC4-PadC2)*%
X24650000Y-26700000D03*
%TO.P,IC1,C3,PA1_C3*%
%TO.N,unconnected-(IC1-PA1-PadC3)*%
X24650000Y-26300000D03*
%TO.P,IC1,C4,PA3_C4*%
%TO.N,unconnected-(IC1-PA3-PadC4)*%
X24650000Y-25900000D03*
%TO.P,IC1,D1,PB5_D1*%
%TO.N,unconnected-(IC1-PB5-PadD1)*%
X25050000Y-27100000D03*
%TO.P,IC1,D2,PB4_D2*%
%TO.N,unconnected-(IC1-PB4-PadD2)*%
X25050000Y-26700000D03*
%TO.P,IC1,D3,PA4_D3*%
%TO.N,unconnected-(IC1-PA4-PadD3)*%
X25050000Y-26300000D03*
%TO.P,IC1,D4,PA5_D4*%
%TO.N,Current_READ*%
X25050000Y-25900000D03*
%TO.P,IC1,E1,PB7_E1*%
%TO.N,Net-(IC1-PB7)*%
X25450000Y-27100000D03*
%TO.P,IC1,E2,PB3_E2*%
%TO.N,unconnected-(IC1-PB3-PadE2)*%
X25450000Y-26700000D03*
%TO.P,IC1,E3,PB0_E3*%
%TO.N,unconnected-(IC1-PB0-PadE3)*%
X25450000Y-26300000D03*
%TO.P,IC1,E4,PD2_E4*%
%TO.N,Net-(D1-K)*%
X25450000Y-25900000D03*
%TO.P,IC1,F1,PB6_F1*%
%TO.N,unconnected-(IC1-PB6-PadF1)*%
X25850000Y-27100000D03*
%TO.P,IC1,F2,PB2_F2*%
%TO.N,unconnected-(IC1-PB2-PadF2)*%
X25850000Y-26700000D03*
%TO.P,IC1,F3,PD3_F3*%
%TO.N,unconnected-(IC1-PD3-PadF3)*%
X25850000Y-26300000D03*
%TO.P,IC1,F4,VSS_F4*%
%TO.N,GND*%
X25850000Y-25900000D03*
%TO.P,IC1,G1,PB1_G1*%
%TO.N,MOSFET_OUT*%
X26250000Y-27100000D03*
%TO.P,IC1,G2,PD1_G2*%
%TO.N,unconnected-(IC1-PD1-PadG2)*%
X26250000Y-26700000D03*
%TO.P,IC1,G3,PD0_G3*%
%TO.N,unconnected-(IC1-PD0-PadG3)*%
X26250000Y-26300000D03*
%TO.P,IC1,G4,VDD_G4*%
%TO.N,+3V3*%
X26250000Y-25900000D03*
%TO.P,IC1,H1,VSS3_H1*%
%TO.N,GND*%
X26650000Y-27100000D03*
%TO.P,IC1,H2,PE3_H2*%
%TO.N,USART_RX*%
X26650000Y-26700000D03*
%TO.P,IC1,H3,PE4_H3*%
%TO.N,USART_TX*%
X26650000Y-26300000D03*
%TO.P,IC1,H4,VLCD_H4*%
%TO.N,Net-(IC1-VLCD)*%
X26650000Y-25900000D03*
%TD*%
D23*
%TO.P,Q2,1,S_1_1*%
%TO.N,GNDPWR*%
X35215000Y-25833000D03*
%TO.P,Q2,2,S_2_2*%
X35215000Y-26483000D03*
%TO.P,Q2,3,S_3_3*%
X35215000Y-27133000D03*
%TO.P,Q2,4,G_4*%
%TO.N,Net-(Q2-G)*%
X35215000Y-27783000D03*
D24*
%TO.P,Q2,5,D_1_5*%
%TO.N,Net-(J4-Pin_1)*%
X38250000Y-27783000D03*
%TO.P,Q2,6,D_2_6*%
X38250000Y-27133000D03*
%TO.P,Q2,7,D_3_7*%
X38250000Y-26483000D03*
%TO.P,Q2,8,D_4_8*%
X38250000Y-25833000D03*
D25*
%TO.P,Q2,9,D_5_9*%
X37100000Y-26808000D03*
D26*
%TO.P,Q2,10,D_6_10*%
X36650000Y-25350000D03*
%TO.P,Q2,11,D_7_11*%
X36650000Y-28266000D03*
%TD*%
D12*
%TO.P,R10,1*%
%TO.N,+3V3*%
X21420000Y-27325000D03*
%TO.P,R10,2*%
%TO.N,PWM_OUTPUT*%
X20780000Y-27325000D03*
%TD*%
D27*
%TO.P,D1,1,K_1*%
%TO.N,Net-(D1-K)*%
X22250000Y-27430000D03*
%TO.P,D1,2,A_2*%
%TO.N,GND*%
X22250000Y-28070000D03*
%TD*%
D28*
%TO.N,GNDPWR*%
X31300000Y-24650000D03*
X32250000Y-24650000D03*
D29*
X34650000Y-23550000D03*
X36150000Y-29450000D03*
X33850000Y-29450000D03*
D30*
%TO.N,+BATT*%
X23550000Y-22880000D03*
D29*
X32700000Y-25350000D03*
D30*
X24070000Y-22880000D03*
D29*
X33800000Y-24400000D03*
X26950000Y-21400000D03*
X33800000Y-21500000D03*
%TO.N,GNDPWR*%
X27100000Y-22650000D03*
X24900000Y-20600000D03*
X25150000Y-21750000D03*
X24600000Y-23700000D03*
X28750000Y-20500000D03*
X25350000Y-23700000D03*
X34600000Y-20600000D03*
X20600000Y-20600000D03*
X21900000Y-20600000D03*
X29900000Y-27950000D03*
X23450000Y-20600000D03*
X28825000Y-23125000D03*
X33050000Y-23250000D03*
X35250000Y-24650000D03*
X29900000Y-29050000D03*
X30000000Y-24600000D03*
X35500000Y-21500000D03*
X33700000Y-26150000D03*
X30150000Y-20500000D03*
X27300000Y-20500000D03*
X29900000Y-26900000D03*
D28*
%TO.N,GND*%
X21125000Y-29525000D03*
X22150000Y-28850000D03*
X27599380Y-27598839D03*
X22999479Y-27524479D03*
X22100000Y-26800000D03*
X28050000Y-25800000D03*
X28975000Y-28500000D03*
X25725000Y-25175000D03*
X25825000Y-27725000D03*
%TO.N,Net-(D1-K)*%
X24100521Y-25450521D03*
X25060459Y-25259418D03*
%TO.N,Current_READ*%
X24800000Y-24775000D03*
X26875000Y-24625000D03*
D29*
%TO.N,Net-(J3-Pin_1)*%
X35800000Y-23550000D03*
X36550000Y-23550000D03*
X36550000Y-21850000D03*
X35800000Y-22400000D03*
%TO.N,PWM_GATE*%
X31750000Y-25350000D03*
D28*
%TO.N,MOSFET_OUT*%
X26350000Y-28125000D03*
D29*
X30800000Y-25350000D03*
D28*
%TO.N,SWIM*%
X23325000Y-26550000D03*
X25175000Y-28275000D03*
%TO.N,+3V3*%
X22175000Y-29500000D03*
X27050000Y-27625000D03*
X26731801Y-25181801D03*
X26375000Y-24250000D03*
%TO.N,Net-(J5-Pin_1)*%
X24450000Y-28550000D03*
%TO.N,Net-(IC1-VLCD)*%
X27300000Y-25475000D03*
D29*
%TO.N,Net-(Q2-G)*%
X33700000Y-27800000D03*
%TO.N,Net-(J4-Pin_1)*%
X39200000Y-24850000D03*
X37350000Y-28700000D03*
X37400000Y-24850000D03*
X39200000Y-28700000D03*
X38300000Y-24850000D03*
X38300000Y-28700000D03*
%TD*%
%TO.N,+BATT*%
D31*
X33800000Y-24650000D02*
X33800000Y-24400000D01*
X33250000Y-25200000D02*
X33800000Y-24650000D01*
X32700000Y-25350000D02*
X32850000Y-25200000D01*
X32700000Y-25350000D02*
X32700000Y-26200000D01*
X32850000Y-25200000D02*
X33250000Y-25200000D01*
%TO.N,PWM_GATE*%
X31750000Y-26200000D02*
X31750000Y-25350000D01*
%TO.N,MOSFET_OUT*%
D32*
X30800000Y-25350000D02*
X30800000Y-26200000D01*
%TO.N,Net-(IC1-PB7)*%
D33*
X24900000Y-27800000D02*
X24600000Y-28100000D01*
X22925000Y-28200000D02*
X22925000Y-28925000D01*
X25150000Y-27800000D02*
X24900000Y-27800000D01*
X25450000Y-27500000D02*
X25150000Y-27800000D01*
X24600000Y-28100000D02*
X23025000Y-28100000D01*
X23025000Y-28100000D02*
X22925000Y-28200000D01*
X25450000Y-27100000D02*
X25450000Y-27500000D01*
%TO.N,PWM_INPUT*%
D32*
X21980000Y-24080000D02*
X21980000Y-24870000D01*
X20782500Y-25452500D02*
X20780000Y-25450000D01*
X20780000Y-25120000D02*
X20780000Y-25450000D01*
X21980000Y-24870000D02*
X21950000Y-24900000D01*
X21950000Y-24900000D02*
X21000000Y-24900000D01*
X20782500Y-26200000D02*
X20782500Y-25452500D01*
X21000000Y-24900000D02*
X20780000Y-25120000D01*
%TO.N,+BATT*%
D33*
X23955000Y-22880000D02*
X23975000Y-22900000D01*
D32*
X22025000Y-25450000D02*
X22650000Y-24825000D01*
D33*
X21980000Y-22880000D02*
X23955000Y-22880000D01*
D32*
X23975000Y-24375000D02*
X23975000Y-22900000D01*
X23525000Y-24825000D02*
X23975000Y-24375000D01*
X22650000Y-24825000D02*
X23525000Y-24825000D01*
X21420000Y-25450000D02*
X22025000Y-25450000D01*
%TO.N,GNDPWR*%
X27925000Y-21825000D02*
X27100000Y-22650000D01*
%TO.N,GND*%
D33*
X25850000Y-25300000D02*
X25725000Y-25175000D01*
X27599380Y-27573339D02*
X27599380Y-27598839D01*
X25850000Y-25900000D02*
X25850000Y-25300000D01*
X26650000Y-27100000D02*
X27126041Y-27100000D01*
X22453958Y-28070000D02*
X22999479Y-27524479D01*
X27126041Y-27100000D02*
X27599380Y-27573339D01*
X22250000Y-28070000D02*
X22453958Y-28070000D01*
%TO.N,Net-(D1-K)*%
D32*
X22090000Y-27430000D02*
X22250000Y-27430000D01*
D33*
X24100000Y-25450000D02*
X23475000Y-25450000D01*
X22850000Y-26075000D02*
X22850000Y-26875000D01*
X24100521Y-25450521D02*
X24100000Y-25450000D01*
D32*
X21420000Y-28870000D02*
X21420000Y-28100000D01*
X21420000Y-28100000D02*
X22090000Y-27430000D01*
D33*
X25450000Y-25650000D02*
X25450000Y-25900000D01*
X22295000Y-27430000D02*
X22250000Y-27430000D01*
X23475000Y-25450000D02*
X22850000Y-26075000D01*
X22850000Y-26875000D02*
X22295000Y-27430000D01*
X25060459Y-25259418D02*
X25060459Y-25260459D01*
X25060459Y-25260459D02*
X25450000Y-25650000D01*
%TO.N,Current_READ*%
X27394999Y-24550000D02*
X26950000Y-24550000D01*
X25050000Y-25850000D02*
X24500000Y-25300000D01*
D32*
X27745000Y-24000000D02*
X28555000Y-24000000D01*
D33*
X27745000Y-24000000D02*
X27745000Y-24199999D01*
X27745000Y-24199999D02*
X27394999Y-24550000D01*
X24500000Y-25075000D02*
X24800000Y-24775000D01*
X25050000Y-25900000D02*
X25050000Y-25850000D01*
X26950000Y-24550000D02*
X26875000Y-24625000D01*
X24500000Y-25300000D02*
X24500000Y-25075000D01*
%TO.N,Net-(IC2-OUT)*%
D32*
X27105000Y-24000000D02*
X27105000Y-23800001D01*
X27105000Y-23800001D02*
X27925000Y-22980001D01*
X27925000Y-22980001D02*
X27925000Y-22325000D01*
%TO.N,Net-(IC2-RS+)*%
D33*
X29325000Y-21825000D02*
X30870000Y-23370000D01*
X30870000Y-23370000D02*
X31720000Y-23370000D01*
X28425000Y-21825000D02*
X29325000Y-21825000D01*
%TO.N,Net-(IC2-RS-)*%
X35295000Y-20830000D02*
X38580000Y-20830000D01*
X30625000Y-24100000D02*
X29962500Y-23437500D01*
X30800000Y-24100000D02*
X30625000Y-24100000D01*
X30800000Y-24100000D02*
X33125000Y-24100000D01*
X33125000Y-24100000D02*
X34775000Y-22450000D01*
X28425000Y-22325000D02*
X29275000Y-22325000D01*
X34775000Y-22450000D02*
X34775000Y-21350000D01*
X34775000Y-21350000D02*
X35295000Y-20830000D01*
X29275000Y-22325000D02*
X29962500Y-23012500D01*
X29962500Y-23437500D02*
X29962500Y-23012500D01*
%TO.N,MOSFET_OUT*%
X26250000Y-27525000D02*
X26350000Y-27625000D01*
X26350000Y-27625000D02*
X26350000Y-28125000D01*
X26250000Y-27100000D02*
X26250000Y-27525000D01*
%TO.N,PWM_OUTPUT*%
D32*
X20780000Y-28100000D02*
X20780000Y-27325000D01*
X20782500Y-27322500D02*
X20780000Y-27325000D01*
X20782500Y-26600000D02*
X20782500Y-27322500D01*
X20782500Y-26600000D02*
X21182500Y-26600000D01*
%TO.N,SWIM*%
D33*
X23325000Y-26550000D02*
X23350000Y-26525000D01*
X23350000Y-26225000D02*
X23675000Y-25900000D01*
X24950000Y-29125000D02*
X24950000Y-28500000D01*
X23675000Y-25900000D02*
X23850000Y-25900000D01*
X23350000Y-26525000D02*
X23350000Y-26225000D01*
X24950000Y-28500000D02*
X25175000Y-28275000D01*
%TO.N,+3V3*%
X24725000Y-24225000D02*
X23800000Y-25150000D01*
D32*
X26731801Y-25181801D02*
X26250000Y-25663602D01*
X21600000Y-26375000D02*
X21600000Y-26825000D01*
X21600000Y-26825000D02*
X21420000Y-27005000D01*
X21425000Y-26200000D02*
X21600000Y-26375000D01*
X26250000Y-25900000D02*
X26250000Y-24375000D01*
D33*
X22075000Y-26375000D02*
X21600000Y-26375000D01*
X26350000Y-24225000D02*
X24725000Y-24225000D01*
X23300000Y-25150000D02*
X22075000Y-26375000D01*
D32*
X26250000Y-24375000D02*
X26375000Y-24250000D01*
X27050000Y-27625000D02*
X27050000Y-29125000D01*
D33*
X26950000Y-29725000D02*
X22400000Y-29725000D01*
D32*
X21182500Y-26200000D02*
X21425000Y-26200000D01*
X21420000Y-27005000D02*
X21420000Y-27325000D01*
X26250000Y-25663602D02*
X26250000Y-25900000D01*
D33*
X27050000Y-29125000D02*
X27050000Y-29625000D01*
X27050000Y-29625000D02*
X26950000Y-29725000D01*
X23800000Y-25150000D02*
X23300000Y-25150000D01*
D32*
X26375000Y-24250000D02*
X26350000Y-24225000D01*
D33*
X22400000Y-29725000D02*
X22175000Y-29500000D01*
%TO.N,USART_RX*%
D32*
X26650000Y-26700000D02*
X27625000Y-26700000D01*
X28100000Y-28697182D02*
X27900000Y-28897182D01*
X27900000Y-28975000D02*
X27750000Y-29125000D01*
X28100000Y-27175000D02*
X28100000Y-28697182D01*
X27625000Y-26700000D02*
X28100000Y-27175000D01*
X27900000Y-28897182D02*
X27900000Y-28975000D01*
%TO.N,USART_TX*%
X26650000Y-26300000D02*
X28225000Y-26300000D01*
X28225000Y-26300000D02*
X28450000Y-26525000D01*
X28450000Y-26525000D02*
X28450000Y-29125000D01*
%TO.N,Net-(J5-Pin_1)*%
D33*
X24075000Y-28925000D02*
X24450000Y-28550000D01*
X23725000Y-28925000D02*
X24075000Y-28925000D01*
%TO.N,Net-(IC1-VLCD)*%
D32*
X27300000Y-25475000D02*
X27075000Y-25475000D01*
X27075000Y-25475000D02*
X26650000Y-25900000D01*
%TO.N,Net-(Q2-G)*%
D31*
X35198000Y-27800000D02*
X35215000Y-27783000D01*
X33700000Y-27800000D02*
X35198000Y-27800000D01*
%TD*%
%TA.AperFunction,Conductor*%
%TO.N,+BATT*%
G36*
X33715677Y-20319685D02*
G01*
X33736319Y-20336319D01*
X34063681Y-20663681D01*
X34097166Y-20725004D01*
X34100000Y-20751362D01*
X34100000Y-22198638D01*
X34080315Y-22265677D01*
X34063681Y-22286319D01*
X33736319Y-22613681D01*
X33674996Y-22647166D01*
X33648638Y-22650000D01*
X30847294Y-22650000D01*
X30780255Y-22630315D01*
X30759613Y-22613681D01*
X29595932Y-21450000D01*
X27500000Y-21450000D01*
X27499999Y-21450000D01*
X26450000Y-22499999D01*
X26450000Y-23098638D01*
X26430315Y-23165677D01*
X26413681Y-23186319D01*
X26386319Y-23213681D01*
X26324996Y-23247166D01*
X26298638Y-23250000D01*
X25421233Y-23250000D01*
X25413604Y-23249500D01*
X25409309Y-23249500D01*
X25290691Y-23249500D01*
X25286396Y-23249500D01*
X25278767Y-23250000D01*
X24661175Y-23250000D01*
X24659309Y-23249500D01*
X24540691Y-23249500D01*
X24538825Y-23250000D01*
X24149999Y-23250000D01*
X23986319Y-23413681D01*
X23924996Y-23447166D01*
X23898638Y-23450000D01*
X20424000Y-23450000D01*
X20356961Y-23430315D01*
X20311206Y-23377511D01*
X20300000Y-23326000D01*
X20300000Y-22424000D01*
X20319685Y-22356961D01*
X20372489Y-22311206D01*
X20424000Y-22300000D01*
X25400000Y-22300000D01*
X25500000Y-22200000D01*
X26763681Y-20936319D01*
X26825004Y-20902834D01*
X26851362Y-20900000D01*
X27058596Y-20900000D01*
X27120597Y-20916614D01*
X27126114Y-20919799D01*
X27240691Y-20950500D01*
X27240694Y-20950500D01*
X27359306Y-20950500D01*
X27359309Y-20950500D01*
X27473886Y-20919799D01*
X27479403Y-20916614D01*
X27541404Y-20900000D01*
X28508596Y-20900000D01*
X28570597Y-20916614D01*
X28576114Y-20919799D01*
X28690691Y-20950500D01*
X28690694Y-20950500D01*
X28809306Y-20950500D01*
X28809309Y-20950500D01*
X28923886Y-20919799D01*
X28929403Y-20916614D01*
X28991404Y-20900000D01*
X29908596Y-20900000D01*
X29970597Y-20916614D01*
X29976114Y-20919799D01*
X30090691Y-20950500D01*
X30090694Y-20950500D01*
X30209306Y-20950500D01*
X30209309Y-20950500D01*
X30323886Y-20919799D01*
X30329403Y-20916614D01*
X30391404Y-20900000D01*
X30435713Y-20900000D01*
X30435714Y-20900000D01*
X30912884Y-20343302D01*
X30971459Y-20305212D01*
X31007032Y-20300000D01*
X33648638Y-20300000D01*
X33715677Y-20319685D01*
G37*
%TD.AperFunction*%
%TD*%
%TA.AperFunction,Conductor*%
%TO.N,GNDPWR*%
G36*
X29126625Y-22605521D02*
G01*
X29151869Y-22612934D01*
X29204615Y-22644230D01*
X29638073Y-23077688D01*
X29659223Y-23105940D01*
X29671831Y-23129029D01*
X29687000Y-23188458D01*
X29687000Y-23492302D01*
X29688526Y-23499975D01*
X29694605Y-23523791D01*
X29695566Y-23532733D01*
X29683158Y-23601492D01*
X29635545Y-23652627D01*
X29567845Y-23669904D01*
X29507108Y-23651478D01*
X29488231Y-23639817D01*
X29476919Y-23638944D01*
X29470820Y-23636442D01*
X29395000Y-23602964D01*
X29395000Y-23602965D01*
X29395000Y-23800000D01*
X29608788Y-23800000D01*
X29608789Y-23800000D01*
X29614478Y-23791268D01*
X29614478Y-23791267D01*
X29618816Y-23772194D01*
X29625906Y-23726935D01*
X29672321Y-23674711D01*
X29739603Y-23655872D01*
X29801989Y-23673622D01*
X29806616Y-23676407D01*
X29830350Y-23694965D01*
X29999241Y-23863857D01*
X30151775Y-24016391D01*
X30422074Y-24286690D01*
X30441447Y-24322170D01*
X30472643Y-24335091D01*
X30472645Y-24335092D01*
X30495434Y-24344531D01*
X30495435Y-24344532D01*
X30495435Y-24344531D01*
X30513966Y-24352207D01*
X30570200Y-24375500D01*
X30570201Y-24375500D01*
X33162301Y-24375500D01*
X33197237Y-24380523D01*
X33212235Y-24384927D01*
X33271009Y-24422698D01*
X33276815Y-24429398D01*
X33302880Y-24478511D01*
X33323751Y-24556404D01*
X33327941Y-24591443D01*
X33327494Y-24610253D01*
X33309411Y-24671843D01*
X33303990Y-24680737D01*
X33285789Y-24703882D01*
X33164097Y-24825574D01*
X33135847Y-24846723D01*
X33112761Y-24859330D01*
X33053330Y-24874500D01*
X32883645Y-24874500D01*
X32867454Y-24873438D01*
X32851478Y-24871334D01*
X32835577Y-24868171D01*
X32765893Y-24849500D01*
X32765892Y-24849500D01*
X32634108Y-24849500D01*
X32506808Y-24883609D01*
X32506806Y-24883610D01*
X32392696Y-24949493D01*
X32392685Y-24949500D01*
X32325285Y-25016900D01*
X32297027Y-25038052D01*
X32283309Y-25045542D01*
X32215051Y-25060393D01*
X32213245Y-25060264D01*
X32155044Y-25040896D01*
X32148529Y-25036709D01*
X32127893Y-25020079D01*
X32057316Y-24949502D01*
X32057314Y-24949500D01*
X31971578Y-24900000D01*
X31971578Y-24899999D01*
X31971576Y-24899999D01*
X31943187Y-24883608D01*
X31868817Y-24863681D01*
X31868817Y-24863680D01*
X31815893Y-24849500D01*
X31815892Y-24849500D01*
X31684108Y-24849500D01*
X31556808Y-24883609D01*
X31556806Y-24883610D01*
X31442696Y-24949493D01*
X31442685Y-24949500D01*
X31375285Y-25016900D01*
X31347027Y-25038052D01*
X31333309Y-25045542D01*
X31265051Y-25060393D01*
X31263245Y-25060264D01*
X31205044Y-25040896D01*
X31198529Y-25036709D01*
X31177893Y-25020079D01*
X31107316Y-24949502D01*
X31107314Y-24949500D01*
X31021578Y-24900000D01*
X31021578Y-24899999D01*
X31021576Y-24899999D01*
X30993187Y-24883608D01*
X30918817Y-24863681D01*
X30918817Y-24863680D01*
X30865893Y-24849500D01*
X30865892Y-24849500D01*
X30734108Y-24849500D01*
X30606808Y-24883609D01*
X30606806Y-24883610D01*
X30492696Y-24949493D01*
X30492682Y-24949502D01*
X30492677Y-24949506D01*
X30399506Y-25042677D01*
X30399502Y-25042682D01*
X30399493Y-25042696D01*
X30333610Y-25156806D01*
X30333609Y-25156808D01*
X30308506Y-25250497D01*
X30299500Y-25284106D01*
X30299500Y-25284108D01*
X30299500Y-25415892D01*
X30332562Y-25539284D01*
X30333609Y-25543188D01*
X30333609Y-25543189D01*
X30374723Y-25614400D01*
X30387110Y-25644303D01*
X30395274Y-25674768D01*
X30399500Y-25706865D01*
X30399500Y-26719752D01*
X30411131Y-26778229D01*
X30411132Y-26778230D01*
X30414021Y-26783636D01*
X30417911Y-26788375D01*
X30447719Y-26832985D01*
X30447720Y-26832987D01*
X30455446Y-26844550D01*
X30455447Y-26844550D01*
X30455448Y-26844552D01*
X30475576Y-26858001D01*
X30480066Y-26861001D01*
X30506322Y-26884585D01*
X30519776Y-26900683D01*
X30546026Y-26954923D01*
X30547396Y-26961502D01*
X30550000Y-26986781D01*
X30550000Y-27350000D01*
X32950000Y-27350000D01*
X32950000Y-26991838D01*
X32955022Y-26956905D01*
X32955604Y-26954923D01*
X32960934Y-26936770D01*
X32980592Y-26903294D01*
X34685000Y-26903294D01*
X34685000Y-26903297D01*
X34685000Y-26933000D01*
X35015000Y-26933000D01*
X35015000Y-26683000D01*
X34690418Y-26683000D01*
X34699465Y-26778558D01*
X34699643Y-26799868D01*
X34699095Y-26806901D01*
X34697900Y-26813076D01*
X34698314Y-26816939D01*
X34697424Y-26828378D01*
X34694307Y-26836575D01*
X34692768Y-26853717D01*
X34691509Y-26858001D01*
X34691918Y-26859555D01*
X34689586Y-26880236D01*
X34685000Y-26903294D01*
X32980592Y-26903294D01*
X32991440Y-26884822D01*
X32991767Y-26884488D01*
X32996151Y-26880025D01*
X33015722Y-26863814D01*
X33044552Y-26844552D01*
X33078651Y-26793519D01*
X33087901Y-26783313D01*
X33090638Y-26772392D01*
X33090648Y-26772358D01*
X33091249Y-26766256D01*
X33100068Y-26721917D01*
X33100500Y-26719931D01*
X33100500Y-26253297D01*
X34685000Y-26253297D01*
X34685000Y-26283000D01*
X35015000Y-26283000D01*
X35015000Y-26033000D01*
X34690418Y-26033000D01*
X34699465Y-26128558D01*
X34698240Y-26153820D01*
X34698291Y-26153823D01*
X34697510Y-26172323D01*
X34695595Y-26172242D01*
X34692768Y-26203717D01*
X34691621Y-26207617D01*
X34691651Y-26208540D01*
X34691918Y-26209555D01*
X34691735Y-26211176D01*
X34691786Y-26212772D01*
X34691307Y-26221589D01*
X34685000Y-26253297D01*
X33100500Y-26253297D01*
X33100500Y-25706865D01*
X33104725Y-25674773D01*
X33112887Y-25644310D01*
X33125278Y-25614397D01*
X33126371Y-25612504D01*
X33131687Y-25603297D01*
X34685000Y-25603297D01*
X34685000Y-25633000D01*
X35015000Y-25633000D01*
X35015000Y-25423000D01*
X34865299Y-25423000D01*
X34865297Y-25423000D01*
X34806966Y-25434602D01*
X34806965Y-25434602D01*
X34806964Y-25434603D01*
X34806961Y-25434604D01*
X34806955Y-25434609D01*
X34740808Y-25478808D01*
X34696609Y-25544955D01*
X34696604Y-25544961D01*
X34696603Y-25544964D01*
X34696603Y-25544965D01*
X34696602Y-25544966D01*
X34685000Y-25603297D01*
X33131687Y-25603297D01*
X33131715Y-25603249D01*
X33131730Y-25603222D01*
X33153711Y-25575194D01*
X33167330Y-25562209D01*
X33223664Y-25531451D01*
X33233789Y-25528995D01*
X33263020Y-25525500D01*
X33292851Y-25525500D01*
X33292853Y-25525500D01*
X33358141Y-25508006D01*
X33375636Y-25503319D01*
X33375636Y-25503318D01*
X33375639Y-25503318D01*
X33382341Y-25499448D01*
X33399014Y-25489823D01*
X33399015Y-25489822D01*
X33399503Y-25489540D01*
X33406046Y-25485763D01*
X33406051Y-25485760D01*
X33446644Y-25462323D01*
X33455279Y-25457337D01*
X33455285Y-25457333D01*
X33480358Y-25442856D01*
X33500476Y-25409850D01*
X34060465Y-24849862D01*
X34060472Y-24849849D01*
X34062046Y-24847799D01*
X34072380Y-24835963D01*
X34072440Y-24835901D01*
X34101751Y-24806593D01*
X34101642Y-24806451D01*
X34134407Y-24773407D01*
X34134502Y-24773354D01*
X34134766Y-24773047D01*
X34200500Y-24707314D01*
X34266392Y-24593186D01*
X34300500Y-24465892D01*
X34300500Y-24334108D01*
X34266392Y-24206814D01*
X34200500Y-24092686D01*
X34107314Y-23999500D01*
X34022439Y-23950497D01*
X33993185Y-23933607D01*
X33962779Y-23925459D01*
X33954346Y-23921797D01*
X33950972Y-23918982D01*
X33939211Y-23913945D01*
X33927358Y-23906721D01*
X33880361Y-23855023D01*
X33868773Y-23786121D01*
X33868967Y-23784499D01*
X33889399Y-23729722D01*
X33892213Y-23725565D01*
X33907210Y-23707403D01*
X34957821Y-22656794D01*
X35019142Y-22623311D01*
X35088834Y-22628295D01*
X35144767Y-22670167D01*
X35169184Y-22735631D01*
X35169500Y-22744477D01*
X35169500Y-23773826D01*
X35170104Y-23786117D01*
X35170489Y-23793960D01*
X35170489Y-23793967D01*
X35172388Y-23813249D01*
X35172394Y-23813302D01*
X35175343Y-23833192D01*
X35177215Y-23842609D01*
X35177216Y-23842613D01*
X35188910Y-23881168D01*
X35203689Y-23916852D01*
X35210461Y-23929520D01*
X35222685Y-23952389D01*
X35222689Y-23952395D01*
X35222693Y-23952402D01*
X35227996Y-23960340D01*
X35240009Y-23976538D01*
X35240023Y-23976555D01*
X35252315Y-23991534D01*
X35252349Y-23991574D01*
X35265870Y-24006491D01*
X35318507Y-24059128D01*
X35333424Y-24072649D01*
X35333446Y-24072668D01*
X35333453Y-24072674D01*
X35344510Y-24081748D01*
X35348443Y-24084975D01*
X35348460Y-24084989D01*
X35364658Y-24097002D01*
X35372599Y-24102307D01*
X35372604Y-24102310D01*
X35372610Y-24102314D01*
X35408131Y-24121302D01*
X35443812Y-24136083D01*
X35482366Y-24147779D01*
X35488700Y-24149039D01*
X35488700Y-24149038D01*
X35492652Y-24149825D01*
X35492653Y-24149825D01*
X35493018Y-24149897D01*
X35493066Y-24149922D01*
X35493216Y-24149937D01*
X35518890Y-24155044D01*
X35532576Y-24154586D01*
X35543748Y-24155135D01*
X35551170Y-24155500D01*
X36354514Y-24155500D01*
X36421553Y-24175185D01*
X36467308Y-24227989D01*
X36477252Y-24297147D01*
X36448227Y-24360703D01*
X36442196Y-24367181D01*
X36251781Y-24557597D01*
X36251752Y-24557628D01*
X36237083Y-24573959D01*
X36237063Y-24573982D01*
X36220460Y-24594588D01*
X36207603Y-24612419D01*
X36207589Y-24612440D01*
X36203409Y-24618944D01*
X36181299Y-24665157D01*
X36181290Y-24665179D01*
X36178310Y-24674135D01*
X36178311Y-24674136D01*
X36176206Y-24680459D01*
X36163609Y-24718318D01*
X36162507Y-24721632D01*
X36162506Y-24721634D01*
X36162120Y-24722793D01*
X36161906Y-24723434D01*
X36155520Y-24742627D01*
X36156502Y-24748035D01*
X36154819Y-24759087D01*
X36151949Y-24773523D01*
X36151949Y-24773526D01*
X36151819Y-24775346D01*
X36154051Y-24806593D01*
X36155290Y-24823949D01*
X36155225Y-24825843D01*
X36155321Y-24826343D01*
X36155459Y-24826316D01*
X36155669Y-24829248D01*
X36155990Y-24833742D01*
X36162053Y-24861609D01*
X36162597Y-24864244D01*
X36165004Y-24876591D01*
X36164996Y-24876667D01*
X36165055Y-24876853D01*
X36169310Y-24898932D01*
X36168704Y-24899048D01*
X36172000Y-24924076D01*
X36172000Y-25007826D01*
X36169618Y-25032015D01*
X36164500Y-25057747D01*
X36164500Y-25311448D01*
X36159476Y-25346385D01*
X36153564Y-25366518D01*
X36123050Y-25418474D01*
X36118344Y-25423265D01*
X36098774Y-25439474D01*
X36040446Y-25478447D01*
X36040445Y-25478448D01*
X35996133Y-25544767D01*
X35996132Y-25544769D01*
X35996093Y-25544966D01*
X35989839Y-25576404D01*
X35970953Y-25612504D01*
X35957764Y-25641385D01*
X35926989Y-25661161D01*
X35925903Y-25661977D01*
X35924906Y-25662500D01*
X35898985Y-25679159D01*
X35829116Y-25679158D01*
X35770338Y-25641383D01*
X35751257Y-25611691D01*
X35749128Y-25607029D01*
X35740307Y-25579716D01*
X35733395Y-25544964D01*
X35689191Y-25478808D01*
X35689188Y-25478805D01*
X35633189Y-25441388D01*
X35628445Y-25437495D01*
X35623034Y-25434603D01*
X35623033Y-25434602D01*
X35564702Y-25423000D01*
X35564700Y-25423000D01*
X35415000Y-25423000D01*
X35415000Y-26991170D01*
X35409975Y-27026114D01*
X35405570Y-27041112D01*
X35367827Y-27099855D01*
X35366458Y-27101042D01*
X35311597Y-27128518D01*
X35304039Y-27130163D01*
X35277668Y-27133000D01*
X35215000Y-27133000D01*
X35215000Y-27191170D01*
X35209975Y-27226114D01*
X35205570Y-27241112D01*
X35167827Y-27299855D01*
X35166458Y-27301042D01*
X35111597Y-27328518D01*
X35104039Y-27330163D01*
X35077668Y-27333000D01*
X34685000Y-27333000D01*
X34684944Y-27333055D01*
X34679975Y-27367614D01*
X34675570Y-27382612D01*
X34637827Y-27441355D01*
X34636458Y-27442542D01*
X34581597Y-27470018D01*
X34574039Y-27471663D01*
X34547668Y-27474500D01*
X34151506Y-27474500D01*
X34116570Y-27469477D01*
X34091328Y-27462065D01*
X34038583Y-27430769D01*
X34007316Y-27399502D01*
X34007314Y-27399500D01*
X33921578Y-27350000D01*
X33921578Y-27349999D01*
X33921576Y-27349999D01*
X33893187Y-27333608D01*
X33810677Y-27311500D01*
X33810677Y-27311499D01*
X33765893Y-27299500D01*
X33765892Y-27299500D01*
X33634108Y-27299500D01*
X33506808Y-27333609D01*
X33506806Y-27333610D01*
X33392696Y-27399493D01*
X33392682Y-27399502D01*
X33392677Y-27399506D01*
X33299506Y-27492677D01*
X33299502Y-27492682D01*
X33299493Y-27492696D01*
X33233610Y-27606806D01*
X33233609Y-27606809D01*
X33214607Y-27677727D01*
X33199500Y-27734106D01*
X33199500Y-27865896D01*
X33206198Y-27890893D01*
X33206199Y-27890893D01*
X33233608Y-27993187D01*
X33259231Y-28037566D01*
X33263800Y-28045480D01*
X33236509Y-28061236D01*
X33288915Y-28094038D01*
X33294552Y-28100865D01*
X33299498Y-28107311D01*
X33299500Y-28107314D01*
X33392686Y-28200500D01*
X33506814Y-28266392D01*
X33634108Y-28300500D01*
X33634110Y-28300500D01*
X33765890Y-28300500D01*
X33765892Y-28300500D01*
X33893186Y-28266392D01*
X34007314Y-28200500D01*
X34033392Y-28174421D01*
X34061640Y-28153275D01*
X34084732Y-28140667D01*
X34144157Y-28125500D01*
X34666965Y-28125500D01*
X34701897Y-28130521D01*
X34733711Y-28139863D01*
X34767660Y-28155735D01*
X34796615Y-28175082D01*
X34801359Y-28178976D01*
X34806770Y-28181868D01*
X34857612Y-28191981D01*
X34860337Y-28192703D01*
X34865249Y-28193500D01*
X35564750Y-28193500D01*
X35568873Y-28193500D01*
X35576732Y-28191116D01*
X35596381Y-28187208D01*
X35611258Y-28184249D01*
X35617354Y-28183648D01*
X35617386Y-28183639D01*
X35628311Y-28180902D01*
X35638515Y-28171654D01*
X35689552Y-28137552D01*
X35733867Y-28071231D01*
X35733867Y-28071229D01*
X35733868Y-28071229D01*
X35736031Y-28060354D01*
X35736167Y-28060088D01*
X35736249Y-28059259D01*
X35736320Y-28058900D01*
X35739903Y-28040884D01*
X35758787Y-28004781D01*
X35771983Y-27975892D01*
X35802528Y-27956264D01*
X35803723Y-27955367D01*
X35804841Y-27954777D01*
X35830763Y-27938121D01*
X35900633Y-27938125D01*
X35959409Y-27975903D01*
X35978488Y-28005595D01*
X35980614Y-28010251D01*
X35989435Y-28037566D01*
X35996130Y-28071227D01*
X35999023Y-28076639D01*
X36002915Y-28081381D01*
X36020245Y-28107316D01*
X36034287Y-28128331D01*
X36034287Y-28128333D01*
X36040446Y-28137550D01*
X36040447Y-28137551D01*
X36040448Y-28137552D01*
X36053687Y-28146398D01*
X36094571Y-28173717D01*
X36120824Y-28197299D01*
X36134274Y-28213392D01*
X36160523Y-28267621D01*
X36161894Y-28274202D01*
X36164500Y-28299492D01*
X36164500Y-28558252D01*
X36168826Y-28580000D01*
X36169618Y-28583982D01*
X36172000Y-28608172D01*
X36172000Y-28626138D01*
X36173178Y-28648118D01*
X36176011Y-28674465D01*
X36176012Y-28674467D01*
X36199970Y-28750978D01*
X36199971Y-28750983D01*
X36214372Y-28777355D01*
X36233456Y-28812305D01*
X36233458Y-28812308D01*
X36233460Y-28812311D01*
X36268498Y-28859115D01*
X36268502Y-28859119D01*
X36268509Y-28859129D01*
X36268516Y-28859136D01*
X36512426Y-29103047D01*
X36512446Y-29103066D01*
X36512451Y-29103071D01*
X36519728Y-29110002D01*
X36528718Y-29118153D01*
X36528738Y-29118171D01*
X36535308Y-29123840D01*
X36536340Y-29124730D01*
X36537324Y-29125538D01*
X36562067Y-29142971D01*
X36593308Y-29161701D01*
X36620340Y-29175309D01*
X36632383Y-29180297D01*
X36653922Y-29187415D01*
X36661041Y-29189768D01*
X36692547Y-29197667D01*
X36696280Y-29198603D01*
X36696283Y-29198603D01*
X36696294Y-29198606D01*
X36726015Y-29203773D01*
X36726022Y-29203773D01*
X36726034Y-29203776D01*
X36726047Y-29203777D01*
X36726060Y-29203779D01*
X36726915Y-29203864D01*
X36726913Y-29203874D01*
X36726918Y-29203875D01*
X36726920Y-29203864D01*
X36727233Y-29203894D01*
X36727382Y-29203909D01*
X36737376Y-29204647D01*
X36749598Y-29205251D01*
X36759703Y-29205500D01*
X36759722Y-29205500D01*
X39538072Y-29205500D01*
X39538081Y-29205500D01*
X39558298Y-29204503D01*
X39582575Y-29202103D01*
X39602591Y-29199123D01*
X39609874Y-29197669D01*
X39622184Y-29194815D01*
X39636915Y-29190919D01*
X39636919Y-29190917D01*
X39642115Y-29189543D01*
X39642659Y-29191600D01*
X39703225Y-29187956D01*
X39764166Y-29222132D01*
X39796956Y-29283829D01*
X39799500Y-29308817D01*
X39799500Y-29485364D01*
X39799117Y-29495107D01*
X39798353Y-29504800D01*
X39797209Y-29514455D01*
X39789439Y-29563513D01*
X39784896Y-29582435D01*
X39780045Y-29597364D01*
X39762433Y-29631929D01*
X39753198Y-29644640D01*
X39740561Y-29659436D01*
X39659436Y-29740561D01*
X39644640Y-29753198D01*
X39631929Y-29762433D01*
X39597364Y-29780045D01*
X39582435Y-29784896D01*
X39563516Y-29789439D01*
X39555953Y-29790637D01*
X39533175Y-29794245D01*
X39514435Y-29797213D01*
X39504784Y-29798355D01*
X39495102Y-29799117D01*
X39485374Y-29799500D01*
X33190236Y-29799500D01*
X33155294Y-29794475D01*
X33142226Y-29790637D01*
X33083450Y-29752859D01*
X33054429Y-29689301D01*
X33061375Y-29627298D01*
X33064335Y-29619574D01*
X33077005Y-29595082D01*
X33078163Y-29593348D01*
X33087371Y-29583186D01*
X33088396Y-29578033D01*
X33088397Y-29578033D01*
X33098482Y-29527326D01*
X33099204Y-29524604D01*
X33100000Y-29519700D01*
X33100000Y-29200000D01*
X32289458Y-29200000D01*
X32289454Y-29200000D01*
X32284850Y-29202515D01*
X32216577Y-29217366D01*
X32197602Y-29210288D01*
X32195509Y-29210492D01*
X32179599Y-29206346D01*
X32160533Y-29200000D01*
X32160532Y-29200000D01*
X31339454Y-29200000D01*
X31334850Y-29202515D01*
X31266577Y-29217366D01*
X31247602Y-29210288D01*
X31245509Y-29210492D01*
X31229599Y-29206346D01*
X31210533Y-29200000D01*
X31210532Y-29200000D01*
X30400000Y-29200000D01*
X30400000Y-29519702D01*
X30408701Y-29563450D01*
X30411602Y-29578034D01*
X30420790Y-29591784D01*
X30436024Y-29623626D01*
X30440093Y-29636622D01*
X30441339Y-29706480D01*
X30404619Y-29765922D01*
X30349201Y-29794597D01*
X30341146Y-29796425D01*
X30313703Y-29799500D01*
X29768692Y-29799500D01*
X29733756Y-29794477D01*
X29708514Y-29787065D01*
X29655769Y-29755769D01*
X29431347Y-29531347D01*
X29397862Y-29470024D01*
X29397415Y-29419453D01*
X29397965Y-29416688D01*
X29397968Y-29416679D01*
X29399547Y-29408745D01*
X29402510Y-29388783D01*
X29404510Y-29368483D01*
X29405500Y-29348334D01*
X29405500Y-28480297D01*
X30400000Y-28480297D01*
X30400000Y-28800000D01*
X31209141Y-28800000D01*
X31209142Y-28800000D01*
X31209142Y-28799999D01*
X31223380Y-28794688D01*
X31226708Y-28791859D01*
X31243805Y-28789562D01*
X31259497Y-28782392D01*
X31277715Y-28785007D01*
X31295955Y-28782557D01*
X31311580Y-28789868D01*
X31328658Y-28792320D01*
X31342467Y-28799858D01*
X31342950Y-28800000D01*
X31550000Y-28800000D01*
X31550000Y-28580000D01*
X31549998Y-28579998D01*
X31950000Y-28579998D01*
X31950000Y-28580000D01*
X31950000Y-28800000D01*
X32159141Y-28800000D01*
X32159142Y-28800000D01*
X32159142Y-28799999D01*
X32173380Y-28794688D01*
X32176708Y-28791859D01*
X32193805Y-28789562D01*
X32209497Y-28782392D01*
X32227715Y-28785007D01*
X32245955Y-28782557D01*
X32261580Y-28789868D01*
X32278658Y-28792320D01*
X32292467Y-28799858D01*
X32292950Y-28800000D01*
X33100000Y-28800000D01*
X33100000Y-28480301D01*
X33099999Y-28480297D01*
X33088397Y-28421966D01*
X33088396Y-28421965D01*
X33044191Y-28355807D01*
X33031655Y-28347430D01*
X33019928Y-28339594D01*
X32993673Y-28316009D01*
X32980221Y-28299912D01*
X32953973Y-28245669D01*
X32952603Y-28239088D01*
X32950000Y-28213816D01*
X32950000Y-27850000D01*
X32000000Y-27850000D01*
X32000000Y-28460808D01*
X31994976Y-28495745D01*
X31987564Y-28520986D01*
X31956271Y-28573728D01*
X31950000Y-28579998D01*
X31549998Y-28579998D01*
X31537585Y-28567585D01*
X31529504Y-28553734D01*
X31529225Y-28552609D01*
X31527774Y-28550670D01*
X31515167Y-28527581D01*
X31500000Y-28468156D01*
X31500000Y-27850000D01*
X30550000Y-27850000D01*
X30550000Y-28208761D01*
X30544976Y-28243698D01*
X30539064Y-28263831D01*
X30508550Y-28315787D01*
X30503844Y-28320578D01*
X30484274Y-28336786D01*
X30455808Y-28355806D01*
X30455807Y-28355807D01*
X30436418Y-28384824D01*
X30436417Y-28384826D01*
X30411603Y-28421965D01*
X30411602Y-28421966D01*
X30400000Y-28480297D01*
X29405500Y-28480297D01*
X29405500Y-25151665D01*
X29404510Y-25131516D01*
X29402510Y-25111216D01*
X29399547Y-25091254D01*
X29397968Y-25083320D01*
X29386276Y-25044784D01*
X29370752Y-25007309D01*
X29351770Y-24971795D01*
X29347277Y-24965070D01*
X29347270Y-24965060D01*
X29347270Y-24965059D01*
X29339819Y-24955013D01*
X29335259Y-24948864D01*
X29335253Y-24948857D01*
X29335246Y-24948847D01*
X29322337Y-24933118D01*
X29322333Y-24933113D01*
X29322322Y-24933100D01*
X29322296Y-24933071D01*
X29308813Y-24918196D01*
X29308795Y-24918177D01*
X29308777Y-24918157D01*
X29281842Y-24891222D01*
X29277681Y-24887450D01*
X29266908Y-24877685D01*
X29259574Y-24871666D01*
X29251141Y-24864745D01*
X29234932Y-24852724D01*
X29234930Y-24852722D01*
X29234907Y-24852706D01*
X29228210Y-24848232D01*
X29228208Y-24848231D01*
X29192691Y-24829248D01*
X29192688Y-24829247D01*
X29192683Y-24829244D01*
X29155199Y-24813718D01*
X29116656Y-24802026D01*
X29116651Y-24802025D01*
X29116648Y-24802024D01*
X29108724Y-24800447D01*
X29108710Y-24800445D01*
X29088796Y-24797490D01*
X29088729Y-24797482D01*
X29068504Y-24795491D01*
X29068467Y-24795488D01*
X29048335Y-24794500D01*
X29048325Y-24794500D01*
X27839475Y-24794500D01*
X27772436Y-24774815D01*
X27726681Y-24722011D01*
X27716737Y-24652853D01*
X27745762Y-24589297D01*
X27751783Y-24582828D01*
X27906228Y-24428383D01*
X27923822Y-24413775D01*
X27942452Y-24401013D01*
X27962445Y-24389877D01*
X28047765Y-24352206D01*
X28049713Y-24350257D01*
X28077964Y-24329108D01*
X28091688Y-24321614D01*
X28159946Y-24306763D01*
X28161756Y-24306892D01*
X28219953Y-24326258D01*
X28226471Y-24330447D01*
X28247106Y-24347077D01*
X28252235Y-24352206D01*
X28355009Y-24397585D01*
X28380135Y-24400500D01*
X28729864Y-24400499D01*
X28729879Y-24400497D01*
X28729882Y-24400497D01*
X28729888Y-24400496D01*
X28730019Y-24400487D01*
X28730736Y-24400397D01*
X28754987Y-24397586D01*
X28754987Y-24397585D01*
X28754991Y-24397585D01*
X28754992Y-24397584D01*
X28760676Y-24396925D01*
X28760678Y-24396925D01*
X28760688Y-24396924D01*
X28766513Y-24396248D01*
X28779597Y-24386720D01*
X28783658Y-24384927D01*
X28809225Y-24373637D01*
X28843209Y-24364122D01*
X28868367Y-24360828D01*
X28934549Y-24370342D01*
X28995000Y-24397033D01*
X29395000Y-24397033D01*
X29497478Y-24351786D01*
X29576787Y-24272477D01*
X29608789Y-24200000D01*
X29395000Y-24200000D01*
X29395000Y-24397033D01*
X28995000Y-24397033D01*
X28995000Y-23602965D01*
X28995000Y-23602964D01*
X28994999Y-23602964D01*
X28942012Y-23626360D01*
X28908025Y-23635876D01*
X28882866Y-23639170D01*
X28816682Y-23629654D01*
X28782014Y-23614347D01*
X28754991Y-23602415D01*
X28747035Y-23601492D01*
X28729868Y-23599500D01*
X28729865Y-23599500D01*
X28380143Y-23599500D01*
X28380127Y-23599501D01*
X28380113Y-23599502D01*
X28355071Y-23602406D01*
X28355070Y-23602406D01*
X28355012Y-23602413D01*
X28355008Y-23602415D01*
X28252235Y-23647793D01*
X28252234Y-23647794D01*
X28238295Y-23661733D01*
X28225756Y-23668104D01*
X28222030Y-23670893D01*
X28208313Y-23678383D01*
X28140047Y-23693236D01*
X28135737Y-23692928D01*
X28070271Y-23668515D01*
X28056895Y-23656924D01*
X28047765Y-23647794D01*
X27972016Y-23614347D01*
X27933171Y-23587325D01*
X27926519Y-23580479D01*
X27893919Y-23518681D01*
X27896044Y-23460631D01*
X27896839Y-23457789D01*
X27896843Y-23457781D01*
X27897673Y-23454814D01*
X27929395Y-23400575D01*
X28165460Y-23164512D01*
X28174127Y-23149500D01*
X28205021Y-23095990D01*
X28225500Y-23019563D01*
X28225500Y-22740640D01*
X28230522Y-22705707D01*
X28234433Y-22692388D01*
X28272206Y-22633611D01*
X28335758Y-22604586D01*
X28355400Y-22601762D01*
X28373046Y-22600500D01*
X29091693Y-22600500D01*
X29126625Y-22605521D01*
G37*
%TD.AperFunction*%
%TA.AperFunction,Conductor*%
G36*
X28092539Y-21675185D02*
G01*
X28138294Y-21727989D01*
X28149500Y-21779500D01*
X28149500Y-21879803D01*
X28149810Y-21882951D01*
X28149913Y-21906166D01*
X28148584Y-21921004D01*
X28122997Y-21986020D01*
X28066360Y-22026869D01*
X28065559Y-22027151D01*
X28062807Y-22028122D01*
X28008618Y-22034521D01*
X28007424Y-22034396D01*
X27988243Y-22030845D01*
X27964563Y-22024500D01*
X27964562Y-22024500D01*
X27885438Y-22024500D01*
X27885437Y-22024500D01*
X27852297Y-22033380D01*
X27809013Y-22044977D01*
X27808936Y-22045010D01*
X27808130Y-22045485D01*
X27740508Y-22084526D01*
X27740483Y-22084544D01*
X27740481Y-22084545D01*
X27684545Y-22140481D01*
X27684544Y-22140483D01*
X27684526Y-22140508D01*
X27652380Y-22196186D01*
X27652377Y-22196194D01*
X27644982Y-22209004D01*
X27644979Y-22209009D01*
X27631326Y-22259962D01*
X27624746Y-22284522D01*
X27624500Y-22285439D01*
X27624500Y-22285648D01*
X27624500Y-22786338D01*
X27619476Y-22821275D01*
X27612064Y-22846516D01*
X27580769Y-22899260D01*
X26920489Y-23559541D01*
X26920487Y-23559543D01*
X26880468Y-23599560D01*
X26862864Y-23614178D01*
X26844236Y-23626938D01*
X26824250Y-23638070D01*
X26802244Y-23647787D01*
X26802237Y-23647791D01*
X26802230Y-23647797D01*
X26722794Y-23727233D01*
X26722791Y-23727237D01*
X26693235Y-23794174D01*
X26674533Y-23824099D01*
X26664449Y-23836038D01*
X26606153Y-23874551D01*
X26606147Y-23874553D01*
X26603684Y-23875310D01*
X26543839Y-23878551D01*
X26520979Y-23874155D01*
X26512303Y-23872161D01*
X26427728Y-23849500D01*
X26427727Y-23849500D01*
X26322273Y-23849500D01*
X26220413Y-23876792D01*
X26212836Y-23881167D01*
X26174207Y-23903470D01*
X26174205Y-23903470D01*
X26174205Y-23903471D01*
X26143219Y-23921360D01*
X26143206Y-23921365D01*
X26137386Y-23924726D01*
X26107484Y-23937112D01*
X26077027Y-23945274D01*
X26044930Y-23949500D01*
X24779800Y-23949500D01*
X24670200Y-23949500D01*
X24670198Y-23949500D01*
X24670196Y-23949501D01*
X24568944Y-23991439D01*
X24568942Y-23991441D01*
X24490896Y-24069487D01*
X24480392Y-24076418D01*
X24477443Y-24077322D01*
X24471532Y-24081748D01*
X24461608Y-24087167D01*
X24393335Y-24102019D01*
X24327870Y-24077603D01*
X24285999Y-24021669D01*
X24285997Y-24021665D01*
X24283313Y-24014467D01*
X24275500Y-23971147D01*
X24275500Y-23579500D01*
X24295185Y-23512461D01*
X24347989Y-23466706D01*
X24399089Y-23455501D01*
X24399391Y-23455500D01*
X24538825Y-23455500D01*
X24542422Y-23455026D01*
X24550101Y-23455001D01*
X24550139Y-23455012D01*
X24550512Y-23455000D01*
X24649488Y-23455000D01*
X24657599Y-23455266D01*
X24661169Y-23455500D01*
X24661175Y-23455500D01*
X25278754Y-23455500D01*
X25278767Y-23455500D01*
X25292040Y-23455065D01*
X25296065Y-23455000D01*
X25403935Y-23455000D01*
X25407959Y-23455065D01*
X25421233Y-23455500D01*
X25421246Y-23455500D01*
X26298638Y-23455500D01*
X26298639Y-23455500D01*
X26301180Y-23455363D01*
X26320607Y-23454322D01*
X26320614Y-23454321D01*
X26320618Y-23454321D01*
X26346965Y-23451488D01*
X26423482Y-23427529D01*
X26484805Y-23394044D01*
X26531629Y-23358991D01*
X26558991Y-23331629D01*
X26573693Y-23315262D01*
X26590327Y-23294620D01*
X26627490Y-23223575D01*
X26647175Y-23156536D01*
X26655500Y-23098638D01*
X26655500Y-22636481D01*
X26675185Y-22569442D01*
X26691819Y-22548800D01*
X27548800Y-21691819D01*
X27610123Y-21658334D01*
X27636481Y-21655500D01*
X28025500Y-21655500D01*
X28092539Y-21675185D01*
G37*
%TD.AperFunction*%
%TA.AperFunction,Conductor*%
G36*
X33672420Y-22855972D02*
G01*
X33734565Y-22865369D01*
X33787035Y-22911507D01*
X33806232Y-22978688D01*
X33786060Y-23045582D01*
X33769916Y-23065467D01*
X33059811Y-23775573D01*
X33031560Y-23796722D01*
X33008472Y-23809330D01*
X32949042Y-23824500D01*
X32762330Y-23824500D01*
X32727389Y-23819475D01*
X32712390Y-23815070D01*
X32653644Y-23777327D01*
X32652457Y-23775958D01*
X32624977Y-23721083D01*
X32623332Y-23713521D01*
X32620500Y-23687168D01*
X32620500Y-23037646D01*
X32620500Y-23037644D01*
X32617671Y-23013258D01*
X32617670Y-23013256D01*
X32617491Y-23011710D01*
X32616615Y-23008260D01*
X32615942Y-23005066D01*
X32621382Y-22935409D01*
X32663617Y-22879750D01*
X32729240Y-22855761D01*
X32737278Y-22855500D01*
X33648639Y-22855500D01*
X33652530Y-22855291D01*
X33670607Y-22854322D01*
X33670611Y-22854321D01*
X33670621Y-22854321D01*
X33672277Y-22854188D01*
X33672420Y-22855972D01*
G37*
%TD.AperFunction*%
%TA.AperFunction,Conductor*%
G36*
X30562062Y-20220185D02*
G01*
X30607817Y-20272989D01*
X30617761Y-20342147D01*
X30589170Y-20405197D01*
X30520305Y-20485541D01*
X30359271Y-20673412D01*
X30344819Y-20682809D01*
X30333727Y-20696007D01*
X30302097Y-20710590D01*
X30300697Y-20711501D01*
X30299203Y-20711924D01*
X30299129Y-20711959D01*
X30298127Y-20712244D01*
X30276213Y-20718117D01*
X30273297Y-20719324D01*
X30273285Y-20719328D01*
X30272036Y-20719846D01*
X30271130Y-20719943D01*
X30199934Y-20740246D01*
X30165929Y-20745000D01*
X30134074Y-20745000D01*
X30101980Y-20740775D01*
X30075395Y-20733651D01*
X30043295Y-20725050D01*
X30027944Y-20719838D01*
X30023787Y-20718117D01*
X30023782Y-20718115D01*
X30023778Y-20718114D01*
X29961788Y-20701503D01*
X29908596Y-20694500D01*
X28991404Y-20694500D01*
X28938213Y-20701503D01*
X28876207Y-20718118D01*
X28872036Y-20719846D01*
X28856696Y-20725052D01*
X28830363Y-20732108D01*
X28798023Y-20740774D01*
X28765929Y-20745000D01*
X28734074Y-20745000D01*
X28701980Y-20740775D01*
X28675395Y-20733651D01*
X28643295Y-20725050D01*
X28627944Y-20719838D01*
X28623787Y-20718117D01*
X28623782Y-20718115D01*
X28623778Y-20718114D01*
X28561788Y-20701503D01*
X28508596Y-20694500D01*
X27541404Y-20694500D01*
X27488213Y-20701503D01*
X27426207Y-20718118D01*
X27422036Y-20719846D01*
X27406696Y-20725052D01*
X27380363Y-20732108D01*
X27348023Y-20740774D01*
X27315929Y-20745000D01*
X27284074Y-20745000D01*
X27251980Y-20740775D01*
X27225395Y-20733651D01*
X27193295Y-20725050D01*
X27177944Y-20719838D01*
X27173787Y-20718117D01*
X27173782Y-20718115D01*
X27173778Y-20718114D01*
X27111788Y-20701503D01*
X27058596Y-20694500D01*
X26851362Y-20694500D01*
X26851361Y-20694500D01*
X26829381Y-20695678D01*
X26803034Y-20698511D01*
X26803032Y-20698512D01*
X26726521Y-20722470D01*
X26726516Y-20722471D01*
X26665188Y-20755960D01*
X26618384Y-20790998D01*
X26618363Y-20791016D01*
X25351199Y-22058181D01*
X25289876Y-22091666D01*
X25263518Y-22094500D01*
X20423992Y-22094500D01*
X20380315Y-22099196D01*
X20350855Y-22105605D01*
X20281163Y-22100619D01*
X20225231Y-22058746D01*
X20200816Y-21993281D01*
X20200500Y-21984438D01*
X20200500Y-20514635D01*
X20200882Y-20504910D01*
X20201645Y-20495211D01*
X20202790Y-20485539D01*
X20210560Y-20436478D01*
X20215097Y-20417579D01*
X20221058Y-20399229D01*
X20228495Y-20381272D01*
X20244362Y-20350133D01*
X20254512Y-20333570D01*
X20265860Y-20317952D01*
X20278480Y-20303177D01*
X20303177Y-20278480D01*
X20317952Y-20265860D01*
X20333570Y-20254512D01*
X20350133Y-20244362D01*
X20381271Y-20228496D01*
X20399232Y-20221057D01*
X20413456Y-20216436D01*
X20417573Y-20215099D01*
X20436478Y-20210560D01*
X20485572Y-20202784D01*
X20495204Y-20201644D01*
X20504915Y-20200880D01*
X20514627Y-20200500D01*
X30495023Y-20200500D01*
X30562062Y-20220185D01*
G37*
%TD.AperFunction*%
%TA.AperFunction,Conductor*%
G36*
X35909084Y-21113397D02*
G01*
X35936714Y-21118131D01*
X35942154Y-21123107D01*
X35949229Y-21125185D01*
X35967583Y-21146366D01*
X35988269Y-21165288D01*
X35990155Y-21172416D01*
X35994984Y-21177989D01*
X35998973Y-21205735D01*
X36006145Y-21232833D01*
X36003878Y-21239848D01*
X36004928Y-21247147D01*
X35993282Y-21272646D01*
X35984666Y-21299319D01*
X35977477Y-21307256D01*
X35975903Y-21310703D01*
X35962824Y-21323434D01*
X35961783Y-21324584D01*
X35961352Y-21324944D01*
X35958467Y-21327312D01*
X35957796Y-21327919D01*
X35957783Y-21327931D01*
X35943527Y-21340852D01*
X35800087Y-21484291D01*
X35767414Y-21526871D01*
X35767413Y-21526873D01*
X35741842Y-21571141D01*
X35741831Y-21571135D01*
X35704739Y-21635377D01*
X35704197Y-21636317D01*
X35704180Y-21636332D01*
X35684503Y-21661977D01*
X35661977Y-21684503D01*
X35636298Y-21704208D01*
X35527169Y-21767215D01*
X35526871Y-21767414D01*
X35484287Y-21800090D01*
X35265863Y-22018515D01*
X35264804Y-22019628D01*
X35264357Y-22019203D01*
X35206709Y-22054418D01*
X35136857Y-22052822D01*
X35078957Y-22013715D01*
X35051391Y-21949513D01*
X35050500Y-21934674D01*
X35050500Y-21533306D01*
X35055522Y-21498373D01*
X35062934Y-21473128D01*
X35094228Y-21420386D01*
X35360192Y-21154423D01*
X35388442Y-21133275D01*
X35411534Y-21120667D01*
X35470959Y-21105500D01*
X35882190Y-21105500D01*
X35909084Y-21113397D01*
G37*
%TD.AperFunction*%
%TA.AperFunction,Conductor*%
G36*
X37674987Y-20205522D02*
G01*
X37685839Y-20208708D01*
X37744619Y-20246480D01*
X37773646Y-20310034D01*
X37763705Y-20379193D01*
X37756892Y-20394113D01*
X37754253Y-20398753D01*
X37754571Y-20398915D01*
X37750141Y-20407608D01*
X37750141Y-20407609D01*
X37746154Y-20415432D01*
X37717887Y-20470910D01*
X37697551Y-20499757D01*
X37685830Y-20512167D01*
X37628068Y-20546720D01*
X37618259Y-20549373D01*
X37615219Y-20550196D01*
X37582835Y-20554500D01*
X35240197Y-20554500D01*
X35168599Y-20584158D01*
X35168597Y-20584158D01*
X35138944Y-20596440D01*
X35138936Y-20596445D01*
X34620956Y-21114427D01*
X34620935Y-21114449D01*
X34618942Y-21116443D01*
X34541444Y-21193940D01*
X34541442Y-21193943D01*
X34535627Y-21207979D01*
X34521115Y-21223891D01*
X34503986Y-21234292D01*
X34489950Y-21248596D01*
X34474734Y-21252056D01*
X34461395Y-21260157D01*
X34441360Y-21259646D01*
X34421820Y-21264091D01*
X34407147Y-21258775D01*
X34391548Y-21258378D01*
X34374970Y-21247117D01*
X34356129Y-21240292D01*
X34346660Y-21227889D01*
X34333750Y-21219120D01*
X34325891Y-21200683D01*
X34313732Y-21184756D01*
X34309602Y-21162469D01*
X34306353Y-21154846D01*
X34307231Y-21149673D01*
X34305500Y-21140329D01*
X34305500Y-20751361D01*
X34304321Y-20729381D01*
X34301488Y-20703034D01*
X34301487Y-20703032D01*
X34299184Y-20695678D01*
X34277529Y-20626518D01*
X34244044Y-20565195D01*
X34232816Y-20550196D01*
X34209001Y-20518384D01*
X34208998Y-20518381D01*
X34208991Y-20518371D01*
X34102801Y-20412181D01*
X34069316Y-20350858D01*
X34074300Y-20281166D01*
X34116172Y-20225233D01*
X34181636Y-20200816D01*
X34190482Y-20200500D01*
X37640057Y-20200500D01*
X37674987Y-20205522D01*
G37*
%TD.AperFunction*%
%TD*%
%TA.AperFunction,Conductor*%
%TO.N,GND*%
G36*
X20842130Y-28889862D02*
G01*
X20879910Y-28941862D01*
X20885000Y-28974000D01*
X20885000Y-29269999D01*
X20954784Y-29269999D01*
X20979878Y-29267088D01*
X21057373Y-29232871D01*
X21121316Y-29226349D01*
X21141389Y-29232871D01*
X21220006Y-29267584D01*
X21220013Y-29267586D01*
X21229494Y-29268685D01*
X21245135Y-29270500D01*
X21594864Y-29270499D01*
X21594870Y-29270499D01*
X21611615Y-29268556D01*
X21619991Y-29267585D01*
X21651166Y-29253819D01*
X21715108Y-29247297D01*
X21770674Y-29279605D01*
X21796637Y-29338404D01*
X21793630Y-29375875D01*
X21774500Y-29447266D01*
X21774500Y-29552733D01*
X21801792Y-29654587D01*
X21802255Y-29655703D01*
X21802322Y-29656565D01*
X21803557Y-29661171D01*
X21802703Y-29661399D01*
X21807297Y-29719780D01*
X21773712Y-29774583D01*
X21714329Y-29799180D01*
X21706171Y-29799500D01*
X20508190Y-29799500D01*
X20491920Y-29798219D01*
X20423718Y-29787416D01*
X20392773Y-29777362D01*
X20338634Y-29749777D01*
X20312310Y-29730651D01*
X20269348Y-29687689D01*
X20250222Y-29661365D01*
X20246768Y-29654587D01*
X20222637Y-29607226D01*
X20212582Y-29576280D01*
X20201780Y-29508079D01*
X20200500Y-29491810D01*
X20200500Y-29187713D01*
X20220362Y-29126583D01*
X20272362Y-29088803D01*
X20336638Y-29088803D01*
X20388638Y-29126583D01*
X20395518Y-29138544D01*
X20398216Y-29142482D01*
X20477518Y-29221784D01*
X20477521Y-29221786D01*
X20580125Y-29267090D01*
X20580129Y-29267091D01*
X20605205Y-29269999D01*
X20675000Y-29269998D01*
X20675000Y-28974000D01*
X20694862Y-28912870D01*
X20746862Y-28875090D01*
X20779000Y-28870000D01*
X20781000Y-28870000D01*
X20842130Y-28889862D01*
G37*
%TD.AperFunction*%
%TA.AperFunction,Conductor*%
G36*
X29068622Y-25001997D02*
G01*
X29076559Y-25003576D01*
X29114043Y-25019102D01*
X29120771Y-25023597D01*
X29136532Y-25036532D01*
X29163467Y-25063467D01*
X29176404Y-25079231D01*
X29180897Y-25085956D01*
X29196421Y-25123431D01*
X29198000Y-25131365D01*
X29200000Y-25151665D01*
X29200000Y-29348334D01*
X29198000Y-29368634D01*
X29196421Y-29376568D01*
X29180897Y-29414043D01*
X29176404Y-29420768D01*
X29163467Y-29436532D01*
X28830961Y-29769039D01*
X28773691Y-29798220D01*
X28757422Y-29799500D01*
X27428414Y-29799500D01*
X27367284Y-29779638D01*
X27329504Y-29727638D01*
X27327289Y-29690043D01*
X27325500Y-29690043D01*
X27325500Y-29580239D01*
X27345362Y-29519109D01*
X27397362Y-29481329D01*
X27461638Y-29481329D01*
X27481495Y-29490170D01*
X27512514Y-29508079D01*
X27576110Y-29544797D01*
X27576112Y-29544797D01*
X27576114Y-29544799D01*
X27576115Y-29544799D01*
X27576117Y-29544800D01*
X27690686Y-29575499D01*
X27690689Y-29575499D01*
X27690691Y-29575500D01*
X27690692Y-29575500D01*
X27809308Y-29575500D01*
X27809309Y-29575500D01*
X27923886Y-29544799D01*
X28026613Y-29485489D01*
X28026615Y-29485486D01*
X28032019Y-29481341D01*
X28032828Y-29482396D01*
X28083731Y-29456460D01*
X28147215Y-29466515D01*
X28167852Y-29481509D01*
X28167981Y-29481341D01*
X28173388Y-29485490D01*
X28276106Y-29544795D01*
X28276111Y-29544797D01*
X28276114Y-29544799D01*
X28276115Y-29544799D01*
X28276117Y-29544800D01*
X28390686Y-29575499D01*
X28390689Y-29575499D01*
X28390691Y-29575500D01*
X28390692Y-29575500D01*
X28509308Y-29575500D01*
X28509309Y-29575500D01*
X28623886Y-29544799D01*
X28726613Y-29485489D01*
X28810489Y-29401613D01*
X28869799Y-29298886D01*
X28900500Y-29184309D01*
X28900500Y-29065691D01*
X28886880Y-29014862D01*
X28869800Y-28951117D01*
X28869795Y-28951106D01*
X28810490Y-28848388D01*
X28780961Y-28818859D01*
X28751780Y-28761589D01*
X28750500Y-28745320D01*
X28750500Y-26485442D01*
X28750500Y-26485438D01*
X28730021Y-26409011D01*
X28690460Y-26340489D01*
X28634511Y-26284540D01*
X28409511Y-26059540D01*
X28403480Y-26056058D01*
X28374827Y-26039515D01*
X28340990Y-26019979D01*
X28340984Y-26019977D01*
X28264564Y-25999500D01*
X28264562Y-25999500D01*
X27580673Y-25999500D01*
X27519543Y-25979638D01*
X27481763Y-25927638D01*
X27481763Y-25863362D01*
X27519543Y-25811362D01*
X27528672Y-25805434D01*
X27545913Y-25795480D01*
X27620480Y-25720913D01*
X27673207Y-25629587D01*
X27686762Y-25579000D01*
X27700499Y-25527733D01*
X27700500Y-25527726D01*
X27700500Y-25422273D01*
X27700499Y-25422266D01*
X27673208Y-25320416D01*
X27673207Y-25320415D01*
X27673207Y-25320413D01*
X27620480Y-25229087D01*
X27568932Y-25177539D01*
X27539751Y-25120269D01*
X27549806Y-25056785D01*
X27595256Y-25011335D01*
X27642471Y-25000000D01*
X29048335Y-25000000D01*
X29068622Y-25001997D01*
G37*
%TD.AperFunction*%
%TA.AperFunction,Conductor*%
G36*
X25931630Y-27331362D02*
G01*
X25969410Y-27383362D01*
X25974500Y-27415500D01*
X25974500Y-27579800D01*
X26014847Y-27677206D01*
X26016443Y-27681058D01*
X26044039Y-27708654D01*
X26073220Y-27765924D01*
X26074500Y-27782193D01*
X26074500Y-27791029D01*
X26054638Y-27852159D01*
X26044039Y-27864568D01*
X26029519Y-27879087D01*
X25976796Y-27970406D01*
X25976791Y-27970416D01*
X25949500Y-28072266D01*
X25949500Y-28177733D01*
X25976791Y-28279583D01*
X25976796Y-28279593D01*
X26028402Y-28368977D01*
X26029520Y-28370913D01*
X26104087Y-28445480D01*
X26195413Y-28498207D01*
X26195415Y-28498207D01*
X26195416Y-28498208D01*
X26297266Y-28525499D01*
X26297273Y-28525500D01*
X26402727Y-28525500D01*
X26402733Y-28525499D01*
X26504583Y-28498208D01*
X26504582Y-28498208D01*
X26504587Y-28498207D01*
X26593500Y-28446872D01*
X26656370Y-28433509D01*
X26715089Y-28459651D01*
X26747227Y-28515315D01*
X26749500Y-28536939D01*
X26749500Y-28745320D01*
X26729638Y-28806450D01*
X26719039Y-28818859D01*
X26689509Y-28848388D01*
X26630204Y-28951106D01*
X26630199Y-28951117D01*
X26599500Y-29065686D01*
X26599500Y-29184313D01*
X26630199Y-29298882D01*
X26632810Y-29305184D01*
X26629849Y-29306410D01*
X26640447Y-29356445D01*
X26614262Y-29415145D01*
X26558574Y-29447243D01*
X26537024Y-29449500D01*
X26162976Y-29449500D01*
X26101846Y-29429638D01*
X26064066Y-29377638D01*
X26064066Y-29313362D01*
X26067623Y-29305363D01*
X26067190Y-29305184D01*
X26069796Y-29298890D01*
X26069799Y-29298886D01*
X26100500Y-29184309D01*
X26100500Y-29065691D01*
X26086880Y-29014862D01*
X26069800Y-28951117D01*
X26069795Y-28951106D01*
X26010490Y-28848388D01*
X25926611Y-28764509D01*
X25823893Y-28705204D01*
X25823882Y-28705199D01*
X25709313Y-28674500D01*
X25709309Y-28674500D01*
X25590691Y-28674500D01*
X25586939Y-28674500D01*
X25525809Y-28654638D01*
X25488029Y-28602638D01*
X25488029Y-28538362D01*
X25496870Y-28518504D01*
X25548207Y-28429587D01*
X25561754Y-28379030D01*
X25575499Y-28327733D01*
X25575500Y-28327726D01*
X25575500Y-28222273D01*
X25575499Y-28222266D01*
X25548208Y-28120416D01*
X25548207Y-28120415D01*
X25548207Y-28120413D01*
X25495480Y-28029087D01*
X25476542Y-28010149D01*
X25447361Y-27952879D01*
X25457416Y-27889395D01*
X25476535Y-27863079D01*
X25683557Y-27656059D01*
X25697250Y-27623000D01*
X25725500Y-27554800D01*
X25725500Y-27415500D01*
X25745362Y-27354370D01*
X25797362Y-27316590D01*
X25829500Y-27311500D01*
X25870500Y-27311500D01*
X25931630Y-27331362D01*
G37*
%TD.AperFunction*%
%TA.AperFunction,Conductor*%
G36*
X22312130Y-28089862D02*
G01*
X22349910Y-28141862D01*
X22355000Y-28174000D01*
X22355000Y-28499999D01*
X22369039Y-28514038D01*
X22398220Y-28571308D01*
X22399500Y-28587577D01*
X22399500Y-29009990D01*
X22379638Y-29071120D01*
X22327638Y-29108900D01*
X22268584Y-29110447D01*
X22227728Y-29099500D01*
X22227727Y-29099500D01*
X22122273Y-29099500D01*
X22122266Y-29099500D01*
X22020416Y-29126791D01*
X22020413Y-29126792D01*
X22003529Y-29136541D01*
X21940657Y-29149903D01*
X21881939Y-29123759D01*
X21849802Y-29068094D01*
X21848223Y-29034490D01*
X21850500Y-29014865D01*
X21850499Y-28725136D01*
X21850499Y-28725135D01*
X21850499Y-28725129D01*
X21847585Y-28700011D01*
X21847585Y-28700009D01*
X21802206Y-28597235D01*
X21802204Y-28597233D01*
X21802204Y-28597232D01*
X21763511Y-28558540D01*
X21734330Y-28501270D01*
X21744384Y-28437786D01*
X21763507Y-28411464D01*
X21776812Y-28398158D01*
X21834079Y-28368977D01*
X21897564Y-28379030D01*
X21923891Y-28398157D01*
X21977518Y-28451784D01*
X21977521Y-28451786D01*
X22080125Y-28497090D01*
X22080129Y-28497091D01*
X22105205Y-28499999D01*
X22145000Y-28499999D01*
X22145000Y-28174000D01*
X22164862Y-28112870D01*
X22216862Y-28075090D01*
X22249000Y-28070000D01*
X22251000Y-28070000D01*
X22312130Y-28089862D01*
G37*
%TD.AperFunction*%
%TA.AperFunction,Conductor*%
G36*
X27518581Y-27020362D02*
G01*
X27530990Y-27030961D01*
X27769039Y-27269010D01*
X27798220Y-27326280D01*
X27799500Y-27342549D01*
X27799500Y-28529633D01*
X27779638Y-28590763D01*
X27769038Y-28603173D01*
X27719984Y-28652226D01*
X27673364Y-28679142D01*
X27576117Y-28705199D01*
X27576112Y-28705201D01*
X27506500Y-28745393D01*
X27443629Y-28758756D01*
X27384911Y-28732613D01*
X27352773Y-28676949D01*
X27350500Y-28655326D01*
X27350500Y-27932254D01*
X27368285Y-27877516D01*
X27367072Y-27876816D01*
X27395697Y-27827235D01*
X27423207Y-27779587D01*
X27431994Y-27746793D01*
X27450499Y-27677733D01*
X27450500Y-27677726D01*
X27450500Y-27572273D01*
X27450499Y-27572266D01*
X27423208Y-27470416D01*
X27423207Y-27470415D01*
X27423207Y-27470413D01*
X27370480Y-27379087D01*
X27295913Y-27304520D01*
X27295912Y-27304519D01*
X27204593Y-27251796D01*
X27204583Y-27251791D01*
X27102733Y-27224500D01*
X27102727Y-27224500D01*
X27075000Y-27224500D01*
X27013870Y-27204638D01*
X26976090Y-27152638D01*
X26971000Y-27120500D01*
X26971000Y-27104500D01*
X26990862Y-27043370D01*
X27042862Y-27005590D01*
X27075000Y-27000500D01*
X27457451Y-27000500D01*
X27518581Y-27020362D01*
G37*
%TD.AperFunction*%
%TA.AperFunction,Conductor*%
G36*
X23618051Y-26926240D02*
G01*
X23650191Y-26981903D01*
X23644549Y-27043325D01*
X23640859Y-27052235D01*
X23638500Y-27057930D01*
X23638500Y-27142070D01*
X23643860Y-27155009D01*
X23664416Y-27204638D01*
X23670699Y-27219805D01*
X23730195Y-27279301D01*
X23807930Y-27311500D01*
X23807931Y-27311500D01*
X23892069Y-27311500D01*
X23892070Y-27311500D01*
X23969805Y-27279301D01*
X23976461Y-27272645D01*
X24033731Y-27243464D01*
X24097215Y-27253519D01*
X24123539Y-27272645D01*
X24130195Y-27279301D01*
X24207930Y-27311500D01*
X24207931Y-27311500D01*
X24292069Y-27311500D01*
X24292070Y-27311500D01*
X24369805Y-27279301D01*
X24376461Y-27272645D01*
X24433731Y-27243464D01*
X24497215Y-27253519D01*
X24523539Y-27272645D01*
X24530195Y-27279301D01*
X24607930Y-27311500D01*
X24607931Y-27311500D01*
X24692069Y-27311500D01*
X24692070Y-27311500D01*
X24769805Y-27279301D01*
X24776461Y-27272645D01*
X24833731Y-27243464D01*
X24897215Y-27253519D01*
X24898009Y-27253928D01*
X24912214Y-27261320D01*
X24930195Y-27279301D01*
X25007930Y-27311500D01*
X25008640Y-27311500D01*
X25009080Y-27311729D01*
X25017978Y-27313499D01*
X25017462Y-27316090D01*
X25026646Y-27320870D01*
X25058937Y-27331362D01*
X25096717Y-27383362D01*
X25096717Y-27447638D01*
X25071346Y-27489039D01*
X25066346Y-27494039D01*
X25065928Y-27494251D01*
X25065712Y-27494668D01*
X25037321Y-27508827D01*
X25009076Y-27523220D01*
X25008351Y-27523277D01*
X25008193Y-27523356D01*
X25007896Y-27523312D01*
X24992807Y-27524500D01*
X24845199Y-27524500D01*
X24773599Y-27554158D01*
X24743942Y-27566442D01*
X24743940Y-27566443D01*
X24516346Y-27794039D01*
X24459076Y-27823220D01*
X24442807Y-27824500D01*
X22970200Y-27824500D01*
X22921842Y-27844531D01*
X22921842Y-27844530D01*
X22868942Y-27866441D01*
X22868942Y-27866442D01*
X22820562Y-27914822D01*
X22763292Y-27944003D01*
X22699808Y-27933948D01*
X22654358Y-27888498D01*
X22651492Y-27882391D01*
X22612478Y-27791726D01*
X22609555Y-27760123D01*
X22606349Y-27728682D01*
X22606582Y-27727964D01*
X22606560Y-27727723D01*
X22606782Y-27727349D01*
X22612871Y-27708610D01*
X22625037Y-27681058D01*
X22647585Y-27629991D01*
X22650500Y-27604865D01*
X22650499Y-27507192D01*
X22670361Y-27446063D01*
X22680953Y-27433660D01*
X23083558Y-27031058D01*
X23097542Y-26997296D01*
X23139283Y-26948422D01*
X23201782Y-26933415D01*
X23220541Y-26936638D01*
X23272273Y-26950500D01*
X23377727Y-26950500D01*
X23377733Y-26950499D01*
X23479583Y-26923208D01*
X23479582Y-26923208D01*
X23479587Y-26923207D01*
X23496463Y-26913463D01*
X23559332Y-26900098D01*
X23618051Y-26926240D01*
G37*
%TD.AperFunction*%
%TA.AperFunction,Conductor*%
G36*
X22517716Y-26423528D02*
G01*
X22563165Y-26468978D01*
X22574500Y-26516192D01*
X22574500Y-26717806D01*
X22554638Y-26778936D01*
X22544039Y-26791345D01*
X22366344Y-26969039D01*
X22309074Y-26998220D01*
X22292806Y-26999500D01*
X22105129Y-26999500D01*
X22080011Y-27002414D01*
X22080004Y-27002416D01*
X22033191Y-27023086D01*
X21969247Y-27029607D01*
X21913682Y-26997297D01*
X21887721Y-26938498D01*
X21887489Y-26919986D01*
X21888227Y-26910360D01*
X21900500Y-26864562D01*
X21900500Y-26750511D01*
X21900805Y-26746539D01*
X21911602Y-26720328D01*
X21920362Y-26693370D01*
X21923711Y-26690936D01*
X21925288Y-26687109D01*
X21949428Y-26672251D01*
X21972362Y-26655590D01*
X21977936Y-26654707D01*
X21980028Y-26653420D01*
X21984092Y-26653732D01*
X22004500Y-26650500D01*
X22129800Y-26650500D01*
X22231058Y-26608557D01*
X22308557Y-26531058D01*
X22308556Y-26531058D01*
X22396962Y-26442651D01*
X22454232Y-26413472D01*
X22517716Y-26423528D01*
G37*
%TD.AperFunction*%
%TA.AperFunction,Conductor*%
G36*
X25906630Y-25019862D02*
G01*
X25944410Y-25071862D01*
X25949500Y-25104000D01*
X25949500Y-25475000D01*
X25929638Y-25536130D01*
X25877638Y-25573910D01*
X25845500Y-25579000D01*
X25807738Y-25579000D01*
X25802503Y-25579689D01*
X25739305Y-25567973D01*
X25713084Y-25540340D01*
X25711073Y-25539324D01*
X25708548Y-25535560D01*
X25695062Y-25521347D01*
X25694096Y-25514011D01*
X25688275Y-25505331D01*
X25683557Y-25493942D01*
X25683556Y-25493940D01*
X25491420Y-25301804D01*
X25462823Y-25247865D01*
X25460959Y-25238151D01*
X25460959Y-25206691D01*
X25439684Y-25127294D01*
X25438976Y-25123600D01*
X25442525Y-25095252D01*
X25444020Y-25066730D01*
X25446475Y-25063697D01*
X25446961Y-25059823D01*
X25466492Y-25038977D01*
X25484469Y-25016778D01*
X25488378Y-25015620D01*
X25490909Y-25012919D01*
X25509616Y-25009329D01*
X25541112Y-25000000D01*
X25845500Y-25000000D01*
X25906630Y-25019862D01*
G37*
%TD.AperFunction*%
%TD*%
%TA.AperFunction,Conductor*%
%TO.N,Net-(J3-Pin_1)*%
G36*
X39418192Y-21457535D02*
G01*
X39432825Y-21463596D01*
X39479351Y-21503333D01*
X39486401Y-21517170D01*
X39492463Y-21531804D01*
X39497265Y-21592798D01*
X39494054Y-21598038D01*
X39500000Y-23830044D01*
X39492463Y-23868197D01*
X39486402Y-23882828D01*
X39446663Y-23929352D01*
X39432830Y-23936401D01*
X39425448Y-23939458D01*
X39418197Y-23942462D01*
X39380309Y-23950000D01*
X35551173Y-23950000D01*
X35531854Y-23948097D01*
X35528794Y-23947488D01*
X35522460Y-23946228D01*
X35486779Y-23931447D01*
X35478820Y-23926129D01*
X35463817Y-23913817D01*
X35411182Y-23861182D01*
X35398870Y-23846179D01*
X35393552Y-23838220D01*
X35378769Y-23802529D01*
X35376901Y-23793136D01*
X35375000Y-23773826D01*
X35375000Y-22251173D01*
X35376901Y-22231863D01*
X35378770Y-22222467D01*
X35393550Y-22186781D01*
X35398876Y-22178812D01*
X35411174Y-22163825D01*
X35629606Y-21945393D01*
X35668224Y-21923098D01*
X35667887Y-21922284D01*
X35673878Y-21919801D01*
X35673886Y-21919799D01*
X35776613Y-21860489D01*
X35860489Y-21776613D01*
X35919799Y-21673886D01*
X35919801Y-21673878D01*
X35922284Y-21667887D01*
X35923098Y-21668224D01*
X35945393Y-21629606D01*
X36088825Y-21486174D01*
X36103812Y-21473876D01*
X36111781Y-21468550D01*
X36147467Y-21453770D01*
X36156865Y-21451900D01*
X36176173Y-21450000D01*
X39380309Y-21450000D01*
X39418192Y-21457535D01*
G37*
%TD.AperFunction*%
%TD*%
%TA.AperFunction,Conductor*%
%TO.N,Net-(J4-Pin_1)*%
G36*
X39562280Y-24427373D02*
G01*
X39564386Y-24427791D01*
X39568145Y-24428537D01*
X39621774Y-24453586D01*
X39623967Y-24455352D01*
X39663835Y-24512731D01*
X39664514Y-24531582D01*
X39666553Y-24531268D01*
X39673359Y-24575410D01*
X39674807Y-24594300D01*
X39674999Y-28863071D01*
X39672599Y-28887356D01*
X39671407Y-28893326D01*
X39646259Y-28946977D01*
X39641816Y-28952476D01*
X39584372Y-28992250D01*
X39569641Y-28996146D01*
X39562358Y-28997600D01*
X39538081Y-29000000D01*
X36759722Y-29000000D01*
X36747513Y-28999397D01*
X36747066Y-28999353D01*
X36746257Y-28999273D01*
X36711019Y-28990438D01*
X36698976Y-28985450D01*
X36667735Y-28966720D01*
X36666751Y-28965912D01*
X36657761Y-28957761D01*
X36438500Y-28738500D01*
X36922500Y-28738500D01*
X36954657Y-28738500D01*
X36954699Y-28738500D01*
X36954702Y-28738499D01*
X37013033Y-28726897D01*
X37013034Y-28726896D01*
X37079191Y-28682691D01*
X37123396Y-28616534D01*
X37123397Y-28616533D01*
X37134999Y-28558202D01*
X37135000Y-28558199D01*
X37135000Y-28538500D01*
X36922500Y-28538500D01*
X36922500Y-28738500D01*
X36438500Y-28738500D01*
X36413819Y-28713819D01*
X36380334Y-28652496D01*
X36377500Y-28626138D01*
X36377500Y-28407829D01*
X36382523Y-28372893D01*
X36386927Y-28357895D01*
X36424672Y-28299144D01*
X36426041Y-28297957D01*
X36480920Y-28270477D01*
X36488479Y-28268833D01*
X36514832Y-28266000D01*
X36650000Y-28266000D01*
X36650000Y-28193000D01*
X37475000Y-28193000D01*
X38040000Y-28193000D01*
X38460000Y-28193000D01*
X38504657Y-28193000D01*
X38504699Y-28193000D01*
X38504702Y-28192999D01*
X38563033Y-28181397D01*
X38563034Y-28181396D01*
X38629191Y-28137191D01*
X38673396Y-28071034D01*
X38673397Y-28071033D01*
X38684999Y-28012702D01*
X38685000Y-28012699D01*
X38685000Y-27993000D01*
X38460000Y-27993000D01*
X38460000Y-28193000D01*
X38040000Y-28193000D01*
X38040000Y-27573000D01*
X38460000Y-27573000D01*
X38685000Y-27573000D01*
X38685000Y-27553303D01*
X38681491Y-27535664D01*
X38679820Y-27524739D01*
X38672908Y-27460511D01*
X38677211Y-27412336D01*
X38678480Y-27408008D01*
X38678133Y-27406714D01*
X38680482Y-27385411D01*
X38684999Y-27362698D01*
X38685000Y-27362696D01*
X38685000Y-27343000D01*
X38460000Y-27343000D01*
X38460000Y-27573000D01*
X38040000Y-27573000D01*
X38040000Y-27183000D01*
X37475000Y-27183000D01*
X37475000Y-28193000D01*
X36650000Y-28193000D01*
X36650000Y-28135329D01*
X36655021Y-28100399D01*
X36659427Y-28085394D01*
X36697197Y-28026618D01*
X36697201Y-28026615D01*
X36709334Y-28016100D01*
X36711403Y-28009885D01*
X36724906Y-27993725D01*
X36725000Y-27993499D01*
X36725000Y-26923000D01*
X38460000Y-26923000D01*
X38685000Y-26923000D01*
X38685000Y-26903303D01*
X38681491Y-26885664D01*
X38679820Y-26874739D01*
X38672908Y-26810511D01*
X38677211Y-26762336D01*
X38678480Y-26758008D01*
X38678133Y-26756714D01*
X38680482Y-26735411D01*
X38684999Y-26712698D01*
X38685000Y-26712696D01*
X38685000Y-26693000D01*
X38460000Y-26693000D01*
X38460000Y-26923000D01*
X36725000Y-26923000D01*
X36725000Y-26433000D01*
X37475000Y-26433000D01*
X38040000Y-26433000D01*
X38040000Y-26273000D01*
X38460000Y-26273000D01*
X38685000Y-26273000D01*
X38685000Y-26253303D01*
X38681491Y-26235664D01*
X38679820Y-26224739D01*
X38672908Y-26160511D01*
X38677211Y-26112336D01*
X38678480Y-26108008D01*
X38678133Y-26106714D01*
X38680482Y-26085411D01*
X38684999Y-26062698D01*
X38685000Y-26062696D01*
X38685000Y-26043000D01*
X38460000Y-26043000D01*
X38460000Y-26273000D01*
X38040000Y-26273000D01*
X38040000Y-25623000D01*
X38460000Y-25623000D01*
X38685000Y-25623000D01*
X38685000Y-25603301D01*
X38684999Y-25603297D01*
X38673397Y-25544966D01*
X38673396Y-25544965D01*
X38633441Y-25485168D01*
X38629191Y-25478807D01*
X38573189Y-25441388D01*
X38568445Y-25437495D01*
X38563034Y-25434603D01*
X38563033Y-25434602D01*
X38504702Y-25423000D01*
X38504700Y-25423000D01*
X38460000Y-25423000D01*
X38460000Y-25623000D01*
X38040000Y-25623000D01*
X38040000Y-25423000D01*
X37475000Y-25423000D01*
X37475000Y-26433000D01*
X36725000Y-26433000D01*
X36725000Y-25622500D01*
X36720782Y-25618282D01*
X36714750Y-25611804D01*
X36681931Y-25573929D01*
X36654477Y-25519083D01*
X36652832Y-25511521D01*
X36650000Y-25485168D01*
X36650000Y-25350000D01*
X36519330Y-25350000D01*
X36484389Y-25344975D01*
X36469390Y-25340570D01*
X36410644Y-25302827D01*
X36409457Y-25301458D01*
X36381977Y-25246583D01*
X36380332Y-25239021D01*
X36377500Y-25212668D01*
X36377500Y-25077500D01*
X36922500Y-25077500D01*
X37135000Y-25077500D01*
X37135000Y-25057801D01*
X37134999Y-25057797D01*
X37123397Y-24999466D01*
X37123396Y-24999465D01*
X37093634Y-24954923D01*
X37079191Y-24933307D01*
X37023189Y-24895888D01*
X37018445Y-24891995D01*
X37013034Y-24889103D01*
X37013033Y-24889102D01*
X36954702Y-24877500D01*
X36954700Y-24877500D01*
X36922500Y-24877500D01*
X36922500Y-25077500D01*
X36377500Y-25077500D01*
X36377500Y-24869746D01*
X36377500Y-24869035D01*
X36370944Y-24857030D01*
X36370260Y-24855702D01*
X36363927Y-24822840D01*
X36356792Y-24790048D01*
X36356922Y-24788236D01*
X36357135Y-24787595D01*
X36357039Y-24787095D01*
X36358597Y-24783203D01*
X36376284Y-24730051D01*
X36380473Y-24723533D01*
X36397097Y-24702902D01*
X36632779Y-24467219D01*
X36641777Y-24459064D01*
X36642750Y-24458265D01*
X36673982Y-24439549D01*
X36686067Y-24434546D01*
X36721371Y-24425714D01*
X36722593Y-24425594D01*
X36734711Y-24425000D01*
X39538137Y-24425000D01*
X39562280Y-24427373D01*
G37*
%TD.AperFunction*%
%TD*%
M02*
