%TF.GenerationSoftware,KiCad,Pcbnew,10.0.0*%
%TF.CreationDate,2026-07-07T19:25:29+01:00*%
%TF.ProjectId,On-Board Glow,4f6e2d42-6f61-4726-9420-476c6f772e6b,rev?*%
%TF.SameCoordinates,Original*%
%TF.FileFunction,Paste,Top*%
%TF.FilePolarity,Positive*%
%FSLAX46Y46*%
G04 Gerber Fmt 4.6, Leading zero omitted, Abs format (unit mm)*
G04 Created by KiCad (PCBNEW 10.0.0) date 2026-07-07 19:25:29*
%MOMM*%
%LPD*%
G01*
G04 APERTURE LIST*
G04 Aperture macros list*
%AMRoundRect*
0 Rectangle with rounded corners*
0 $1 Rounding radius*
0 $2 $3 $4 $5 $6 $7 $8 $9 X,Y pos of 4 corners*
0 Add a 4 corners polygon primitive as box body*
4,1,4,$2,$3,$4,$5,$6,$7,$8,$9,$2,$3,0*
0 Add four circle primitives for the rounded corners*
1,1,$1+$1,$2,$3*
1,1,$1+$1,$4,$5*
1,1,$1+$1,$6,$7*
1,1,$1+$1,$8,$9*
0 Add four rect primitives between the rounded corners*
20,1,$1+$1,$2,$3,$4,$5,0*
20,1,$1+$1,$4,$5,$6,$7,0*
20,1,$1+$1,$6,$7,$8,$9,0*
20,1,$1+$1,$8,$9,$2,$3,0*%
G04 Aperture macros list end*
%ADD10RoundRect,0.150000X1.350000X0.350000X-1.350000X0.350000X-1.350000X-0.350000X1.350000X-0.350000X0*%
%ADD11RoundRect,0.079500X-0.079500X-0.100500X0.079500X-0.100500X0.079500X0.100500X-0.079500X0.100500X0*%
%ADD12RoundRect,0.079500X0.079500X0.100500X-0.079500X0.100500X-0.079500X-0.100500X0.079500X-0.100500X0*%
%ADD13RoundRect,0.243600X-0.901400X-0.771400X0.901400X-0.771400X0.901400X0.771400X-0.901400X0.771400X0*%
%ADD14RoundRect,0.091200X-0.608800X-0.288800X0.608800X-0.288800X0.608800X0.288800X-0.608800X0.288800X0*%
%ADD15RoundRect,0.190000X-0.510000X-0.190000X0.510000X-0.190000X0.510000X0.190000X-0.510000X0.190000X0*%
%ADD16C,0.298000*%
%ADD17R,0.400000X1.000000*%
%ADD18R,2.000000X1.300000*%
%ADD19C,0.500000*%
%ADD20RoundRect,0.097500X-0.227500X0.402500X-0.227500X-0.402500X0.227500X-0.402500X0.227500X0.402500X0*%
%ADD21C,0.200000*%
%ADD22C,0.242000*%
%ADD23R,0.660000X0.420000*%
%ADD24R,0.470000X0.420000*%
%ADD25R,1.830000X2.370000*%
%ADD26R,0.570000X0.545000*%
%ADD27RoundRect,0.079500X-0.100500X0.079500X-0.100500X-0.079500X0.100500X-0.079500X0.100500X0.079500X0*%
G04 APERTURE END LIST*
D10*
%TO.C,J1*%
X21980000Y-24080000D03*
X21980000Y-22880000D03*
X21980000Y-21680000D03*
%TD*%
D11*
%TO.C,R5*%
X20755000Y-28870000D03*
X21445000Y-28870000D03*
%TD*%
D12*
%TO.C,R4*%
X27770000Y-24000000D03*
X27080000Y-24000000D03*
%TD*%
D13*
%TO.C,R1*%
X32165000Y-21465000D03*
D14*
X31720000Y-23370000D03*
D15*
X38580000Y-20830000D03*
D13*
X38135000Y-22735000D03*
%TD*%
D12*
%TO.C,R9*%
X21445000Y-25450000D03*
X20755000Y-25450000D03*
%TD*%
D16*
%TO.C,IC2*%
X28425000Y-21825000D03*
X28425000Y-22325000D03*
X27925000Y-21825000D03*
X27925000Y-22325000D03*
%TD*%
D11*
%TO.C,C2*%
X28530000Y-24000000D03*
X29220000Y-24000000D03*
%TD*%
D17*
%TO.C,IC4*%
X30800000Y-29000000D03*
X31750000Y-29000000D03*
X32700000Y-29000000D03*
X32700000Y-26200000D03*
X31750000Y-26200000D03*
X30800000Y-26200000D03*
D18*
X31750000Y-27600000D03*
%TD*%
D11*
%TO.C,R7*%
X20755000Y-28100000D03*
X21445000Y-28100000D03*
%TD*%
D19*
%TO.C,J2*%
X24950000Y-29125000D03*
X25650000Y-29125000D03*
X26350000Y-29125000D03*
X27050000Y-29125000D03*
X27750000Y-29125000D03*
X28450000Y-29125000D03*
%TD*%
D20*
%TO.C,J5*%
X23725000Y-28925000D03*
X22925000Y-28925000D03*
%TD*%
D21*
%TO.C,Q1*%
X21182500Y-26200000D03*
X21182500Y-26600000D03*
X20782500Y-26600000D03*
X20782500Y-26200000D03*
%TD*%
D22*
%TO.C,IC1*%
X23850000Y-27100000D03*
X23850000Y-26700000D03*
X23850000Y-26300000D03*
X23850000Y-25900000D03*
X24250000Y-27100000D03*
X24250000Y-26700000D03*
X24250000Y-26300000D03*
X24250000Y-25900000D03*
X24650000Y-27100000D03*
X24650000Y-26700000D03*
X24650000Y-26300000D03*
X24650000Y-25900000D03*
X25050000Y-27100000D03*
X25050000Y-26700000D03*
X25050000Y-26300000D03*
X25050000Y-25900000D03*
X25450000Y-27100000D03*
X25450000Y-26700000D03*
X25450000Y-26300000D03*
X25450000Y-25900000D03*
X25850000Y-27100000D03*
X25850000Y-26700000D03*
X25850000Y-26300000D03*
X25850000Y-25900000D03*
X26250000Y-27100000D03*
X26250000Y-26700000D03*
X26250000Y-26300000D03*
X26250000Y-25900000D03*
X26650000Y-27100000D03*
X26650000Y-26700000D03*
X26650000Y-26300000D03*
X26650000Y-25900000D03*
%TD*%
D23*
%TO.C,Q2*%
X35215000Y-25833000D03*
X35215000Y-26483000D03*
X35215000Y-27133000D03*
X35215000Y-27783000D03*
D24*
X38250000Y-27783000D03*
X38250000Y-27133000D03*
X38250000Y-26483000D03*
X38250000Y-25833000D03*
D25*
X37100000Y-26808000D03*
D26*
X36650000Y-25350000D03*
X36650000Y-28266000D03*
%TD*%
D12*
%TO.C,R10*%
X21445000Y-27325000D03*
X20755000Y-27325000D03*
%TD*%
D27*
%TO.C,D1*%
X22250000Y-27405000D03*
X22250000Y-28095000D03*
%TD*%
M02*
