%TF.GenerationSoftware,KiCad,Pcbnew,10.0.0*%
%TF.CreationDate,2026-07-07T19:25:29+01:00*%
%TF.ProjectId,On-Board Glow,4f6e2d42-6f61-4726-9420-476c6f772e6b,rev?*%
%TF.SameCoordinates,Original*%
%TF.FileFunction,Copper,L2,Bot*%
%TF.FilePolarity,Positive*%
%FSLAX46Y46*%
G04 Gerber Fmt 4.6, Leading zero omitted, Abs format (unit mm)*
G04 Created by KiCad (PCBNEW 10.0.0) date 2026-07-07 19:25:29*
%MOMM*%
%LPD*%
G01*
G04 APERTURE LIST*
G04 Aperture macros list*
%AMRoundRect*
0 Rectangle with rounded corners*
0 $1 Rounding radius*
0 $2 $3 $4 $5 $6 $7 $8 $9 X,Y pos of 4 corners*
0 Add a 4 corners polygon primitive as box body*
4,1,4,$2,$3,$4,$5,$6,$7,$8,$9,$2,$3,0*
0 Add four circle primitives for the rounded corners*
1,1,$1+$1,$2,$3*
1,1,$1+$1,$4,$5*
1,1,$1+$1,$6,$7*
1,1,$1+$1,$8,$9*
0 Add four rect primitives between the rounded corners*
20,1,$1+$1,$2,$3,$4,$5,0*
20,1,$1+$1,$4,$5,$6,$7,0*
20,1,$1+$1,$6,$7,$8,$9,0*
20,1,$1+$1,$8,$9,$2,$3,0*%
G04 Aperture macros list end*
%TA.AperFunction,SMDPad,CuDef*%
%ADD10C,0.208000*%
%TD*%
%TA.AperFunction,SMDPad,CuDef*%
%ADD11RoundRect,0.150000X-1.350000X-0.350000X1.350000X-0.350000X1.350000X0.350000X-1.350000X0.350000X0*%
%TD*%
%TA.AperFunction,SMDPad,CuDef*%
%ADD12RoundRect,0.100000X-0.100000X0.130000X-0.100000X-0.130000X0.100000X-0.130000X0.100000X0.130000X0*%
%TD*%
%TA.AperFunction,SMDPad,CuDef*%
%ADD13R,2.000000X2.000000*%
%TD*%
%TA.AperFunction,SMDPad,CuDef*%
%ADD14RoundRect,0.100000X-0.130000X-0.100000X0.130000X-0.100000X0.130000X0.100000X-0.130000X0.100000X0*%
%TD*%
%TA.AperFunction,SMDPad,CuDef*%
%ADD15RoundRect,0.100000X0.100000X-0.130000X0.100000X0.130000X-0.100000X0.130000X-0.100000X-0.130000X0*%
%TD*%
%TA.AperFunction,SMDPad,CuDef*%
%ADD16RoundRect,0.147500X-0.172500X0.147500X-0.172500X-0.147500X0.172500X-0.147500X0.172500X0.147500X0*%
%TD*%
%TA.AperFunction,SMDPad,CuDef*%
%ADD17RoundRect,0.100000X0.130000X0.100000X-0.130000X0.100000X-0.130000X-0.100000X0.130000X-0.100000X0*%
%TD*%
%TA.AperFunction,ViaPad*%
%ADD18C,0.400000*%
%TD*%
%TA.AperFunction,ViaPad*%
%ADD19C,0.600000*%
%TD*%
%TA.AperFunction,ViaPad*%
%ADD20C,0.500000*%
%TD*%
%TA.AperFunction,Conductor*%
%ADD21C,0.250000*%
%TD*%
%TA.AperFunction,Conductor*%
%ADD22C,0.150000*%
%TD*%
%TA.AperFunction,Conductor*%
%ADD23C,0.500000*%
%TD*%
%TA.AperFunction,Conductor*%
%ADD24C,0.200000*%
%TD*%
G04 APERTURE END LIST*
D10*
%TO.P,PS1,A1,VIN_A1*%
%TO.N,Net-(PS1-EN)*%
X27775000Y-21875000D03*
%TO.P,PS1,A2,VOUT_A2*%
%TO.N,+3V3*%
X27775000Y-22275000D03*
%TO.P,PS1,B1,SS_B1*%
%TO.N,unconnected-(PS1-SS-PadB1)*%
X28175000Y-21875000D03*
%TO.P,PS1,B2,SENSE/_ADJ_B2*%
%TO.N,+3V3*%
X28175000Y-22275000D03*
%TO.P,PS1,C1,EN_C1*%
%TO.N,Net-(PS1-EN)*%
X28575000Y-21875000D03*
%TO.P,PS1,C2,GND_C2*%
%TO.N,GNDPWR*%
X28575000Y-22275000D03*
%TD*%
D11*
%TO.P,J6,1,Pin_1_1*%
%TO.N,+BATT*%
X21980000Y-22880000D03*
%TO.P,J6,2,Pin_2_2*%
%TO.N,GNDPWR*%
X21980000Y-21680000D03*
%TD*%
D12*
%TO.P,C8,1*%
%TO.N,Net-(PS1-EN)*%
X26050000Y-22855000D03*
%TO.P,C8,2*%
%TO.N,GNDPWR*%
X26050000Y-23495000D03*
%TD*%
D13*
%TO.P,J4,1,Pin_1_1*%
%TO.N,Net-(J4-Pin_1)*%
X38200000Y-26800000D03*
%TD*%
D14*
%TO.P,R6,1*%
%TO.N,+3V3*%
X22980000Y-29125000D03*
%TO.P,R6,2*%
%TO.N,Net-(J5-Pin_1)*%
X23620000Y-29125000D03*
%TD*%
D15*
%TO.P,C7,1*%
%TO.N,GND*%
X27300000Y-26845000D03*
%TO.P,C7,2*%
%TO.N,Net-(IC1-VLCD)*%
X27300000Y-26205000D03*
%TD*%
D14*
%TO.P,R8,1*%
%TO.N,GND*%
X28955000Y-25500000D03*
%TO.P,R8,2*%
%TO.N,GNDPWR*%
X29595000Y-25500000D03*
%TD*%
D12*
%TO.P,C15,1*%
%TO.N,+BATT*%
X31387200Y-27280000D03*
%TO.P,C15,2*%
%TO.N,GNDPWR*%
X31387200Y-27920000D03*
%TD*%
D13*
%TO.P,J3,1,Pin_1_1*%
%TO.N,Net-(J3-Pin_1)*%
X38100000Y-22630000D03*
%TD*%
D15*
%TO.P,R12,1*%
%TO.N,Net-(Q2-G)*%
X34452600Y-27772800D03*
%TO.P,R12,2*%
%TO.N,GNDPWR*%
X34452600Y-27132800D03*
%TD*%
D16*
%TO.P,FB1,1*%
%TO.N,+BATT*%
X26050000Y-20990000D03*
%TO.P,FB1,2*%
%TO.N,Net-(PS1-EN)*%
X26050000Y-21960000D03*
%TD*%
D17*
%TO.P,C10,1*%
%TO.N,+3V3*%
X26470000Y-26125000D03*
%TO.P,C10,2*%
%TO.N,GND*%
X25830000Y-26125000D03*
%TD*%
%TO.P,R11,1*%
%TO.N,Net-(Q2-G)*%
X35225000Y-28750000D03*
%TO.P,R11,2*%
%TO.N,PWM_GATE*%
X34585000Y-28750000D03*
%TD*%
D12*
%TO.P,C14,1*%
%TO.N,+BATT*%
X32200000Y-27280000D03*
%TO.P,C14,2*%
%TO.N,GNDPWR*%
X32200000Y-27920000D03*
%TD*%
D17*
%TO.P,C9,1*%
%TO.N,+3V3*%
X26470000Y-26925000D03*
%TO.P,C9,2*%
%TO.N,GND*%
X25830000Y-26925000D03*
%TD*%
D18*
%TO.N,GNDPWR*%
X31300000Y-24650000D03*
X32250000Y-24650000D03*
D19*
X34650000Y-23550000D03*
X36150000Y-29450000D03*
X33850000Y-29450000D03*
D20*
%TO.N,+BATT*%
X23550000Y-22880000D03*
D19*
X32700000Y-25350000D03*
D20*
X24070000Y-22880000D03*
D19*
X33800000Y-24400000D03*
X26950000Y-21400000D03*
X33800000Y-21500000D03*
%TO.N,GNDPWR*%
X27100000Y-22650000D03*
X24900000Y-20600000D03*
X25150000Y-21750000D03*
X24600000Y-23700000D03*
X28750000Y-20500000D03*
X25350000Y-23700000D03*
X34600000Y-20600000D03*
X20600000Y-20600000D03*
X21900000Y-20600000D03*
X29900000Y-27950000D03*
X23450000Y-20600000D03*
X28825000Y-23125000D03*
X33050000Y-23250000D03*
X35250000Y-24650000D03*
X29900000Y-29050000D03*
X30000000Y-24600000D03*
X35500000Y-21500000D03*
X33700000Y-26150000D03*
X30150000Y-20500000D03*
X27300000Y-20500000D03*
X29900000Y-26900000D03*
D18*
%TO.N,GND*%
X21125000Y-29525000D03*
X22150000Y-28850000D03*
X27599380Y-27598839D03*
X22999479Y-27524479D03*
X22100000Y-26800000D03*
X28050000Y-25800000D03*
X28975000Y-28500000D03*
X25725000Y-25175000D03*
X25825000Y-27725000D03*
%TO.N,Net-(D1-K)*%
X24100521Y-25450521D03*
X25060459Y-25259418D03*
%TO.N,Current_READ*%
X24800000Y-24775000D03*
X26875000Y-24625000D03*
D19*
%TO.N,Net-(J3-Pin_1)*%
X35800000Y-23550000D03*
X36550000Y-23550000D03*
X36550000Y-21850000D03*
X35800000Y-22400000D03*
%TO.N,PWM_GATE*%
X31750000Y-25350000D03*
D18*
%TO.N,MOSFET_OUT*%
X26350000Y-28125000D03*
D19*
X30800000Y-25350000D03*
D18*
%TO.N,SWIM*%
X23325000Y-26550000D03*
X25175000Y-28275000D03*
%TO.N,+3V3*%
X22175000Y-29500000D03*
X27050000Y-27625000D03*
X26731801Y-25181801D03*
X26375000Y-24250000D03*
%TO.N,Net-(J5-Pin_1)*%
X24450000Y-28550000D03*
%TO.N,Net-(IC1-VLCD)*%
X27300000Y-25475000D03*
D19*
%TO.N,Net-(Q2-G)*%
X33700000Y-27800000D03*
%TO.N,Net-(J4-Pin_1)*%
X39200000Y-24850000D03*
X37350000Y-28700000D03*
X37400000Y-24850000D03*
X39200000Y-28700000D03*
X38300000Y-24850000D03*
X38300000Y-28700000D03*
%TD*%
%TO.N,+BATT*%
D21*
X32520000Y-27280000D02*
X32200000Y-27280000D01*
X32700000Y-27100000D02*
X32520000Y-27280000D01*
X32700000Y-25350000D02*
X32700000Y-27100000D01*
%TO.N,PWM_GATE*%
X33350000Y-28750000D02*
X34585000Y-28750000D01*
X33200000Y-28900000D02*
X33350000Y-28750000D01*
X31750000Y-26000000D02*
X30600000Y-27150000D01*
X31750000Y-25350000D02*
X31750000Y-26000000D01*
X30600000Y-27150000D02*
X30600000Y-28350000D01*
X31150000Y-28900000D02*
X33200000Y-28900000D01*
X30600000Y-28350000D02*
X31150000Y-28900000D01*
%TO.N,MOSFET_OUT*%
D22*
X28500000Y-28125000D02*
X26350000Y-28125000D01*
X28900000Y-27725000D02*
X28500000Y-28125000D01*
X28900000Y-26725000D02*
X28900000Y-27725000D01*
X30350000Y-26275000D02*
X29350000Y-26275000D01*
X30800000Y-25825000D02*
X30350000Y-26275000D01*
X30800000Y-25350000D02*
X30800000Y-25825000D01*
X29350000Y-26275000D02*
X28900000Y-26725000D01*
%TO.N,+BATT*%
D23*
X23550000Y-22880000D02*
X21980000Y-22880000D01*
D21*
X26950000Y-21400000D02*
X26950000Y-21130000D01*
D23*
X24070000Y-22880000D02*
X23550000Y-22880000D01*
D21*
X26950000Y-21130000D02*
X26810000Y-20990000D01*
X31387200Y-27280000D02*
X32200000Y-27280000D01*
X26810000Y-20990000D02*
X26050000Y-20990000D01*
X33800000Y-21500000D02*
X33800000Y-24400000D01*
%TO.N,GNDPWR*%
D24*
X28575000Y-22875000D02*
X28825000Y-23125000D01*
X28575000Y-22275000D02*
X28575000Y-22875000D01*
%TO.N,GND*%
X25830000Y-27720000D02*
X25825000Y-27725000D01*
X25830000Y-26925000D02*
X25830000Y-27720000D01*
%TO.N,Net-(D1-K)*%
D22*
X24100521Y-25450521D02*
X24101042Y-25450000D01*
X24869877Y-25450000D02*
X25060459Y-25259418D01*
X24101042Y-25450000D02*
X24869877Y-25450000D01*
%TO.N,Current_READ*%
X26800000Y-24700000D02*
X26875000Y-24625000D01*
X25075000Y-24700000D02*
X26800000Y-24700000D01*
X25000000Y-24775000D02*
X25075000Y-24700000D01*
X24800000Y-24775000D02*
X25000000Y-24775000D01*
%TO.N,SWIM*%
X23375000Y-27300000D02*
X23375000Y-26600000D01*
X25175000Y-28275000D02*
X24600000Y-27700000D01*
X24600000Y-27700000D02*
X23775000Y-27700000D01*
X23375000Y-26600000D02*
X23325000Y-26550000D01*
X23375000Y-27300000D02*
X23775000Y-27700000D01*
%TO.N,+3V3*%
D24*
X26470000Y-26125000D02*
X26470000Y-26925000D01*
X26470000Y-27045000D02*
X27050000Y-27625000D01*
X26470000Y-26125000D02*
X26470000Y-25443602D01*
X26375000Y-24250000D02*
X27775000Y-22850000D01*
X26470000Y-25443602D02*
X26731801Y-25181801D01*
D22*
X22825000Y-29500000D02*
X22980000Y-29345000D01*
D24*
X28175000Y-22275000D02*
X27775000Y-22275000D01*
D22*
X22175000Y-29500000D02*
X22825000Y-29500000D01*
D24*
X26470000Y-26925000D02*
X26470000Y-27045000D01*
X27775000Y-22850000D02*
X27775000Y-22275000D01*
D22*
X22980000Y-29345000D02*
X22980000Y-29125000D01*
%TO.N,Net-(J5-Pin_1)*%
X23620000Y-29125000D02*
X23875000Y-29125000D01*
X23875000Y-29125000D02*
X24450000Y-28550000D01*
%TO.N,Net-(IC1-VLCD)*%
D24*
X27300000Y-26205000D02*
X27300000Y-25475000D01*
%TO.N,Net-(Q2-G)*%
D21*
X34474999Y-27800000D02*
X33700000Y-27800000D01*
X35225000Y-28750000D02*
X35225000Y-28550001D01*
X35225000Y-28550001D02*
X34474999Y-27800000D01*
%TO.N,Net-(PS1-EN)*%
D24*
X26050000Y-22855000D02*
X26050000Y-21960000D01*
X28425000Y-21475000D02*
X27925000Y-21475000D01*
X26050000Y-21960000D02*
X27315000Y-21960000D01*
X28575000Y-21875000D02*
X28575000Y-21625000D01*
X27315000Y-21960000D02*
X27400000Y-21875000D01*
X28575000Y-21625000D02*
X28425000Y-21475000D01*
X27775000Y-21625000D02*
X27775000Y-21875000D01*
X27400000Y-21875000D02*
X27775000Y-21875000D01*
X27925000Y-21475000D02*
X27775000Y-21625000D01*
%TD*%
%TA.AperFunction,Conductor*%
%TO.N,GNDPWR*%
G36*
X39495080Y-20200880D02*
G01*
X39504796Y-20201645D01*
X39514431Y-20202785D01*
X39563514Y-20210559D01*
X39582427Y-20215100D01*
X39600765Y-20221058D01*
X39618739Y-20228502D01*
X39649848Y-20244353D01*
X39666433Y-20254516D01*
X39682042Y-20265858D01*
X39696829Y-20278488D01*
X39721509Y-20303168D01*
X39734146Y-20317963D01*
X39745478Y-20333560D01*
X39755645Y-20350151D01*
X39771495Y-20381258D01*
X39778941Y-20399235D01*
X39784897Y-20417566D01*
X39789439Y-20436485D01*
X39797209Y-20485541D01*
X39798353Y-20495197D01*
X39799117Y-20504890D01*
X39799500Y-20514633D01*
X39799500Y-21237538D01*
X39779815Y-21304577D01*
X39727011Y-21350332D01*
X39657853Y-21360276D01*
X39594969Y-21331829D01*
X39566296Y-21307340D01*
X39566290Y-21307336D01*
X39566287Y-21307333D01*
X39511464Y-21273738D01*
X39511463Y-21273737D01*
X39511459Y-21273735D01*
X39496843Y-21267681D01*
X39496833Y-21267678D01*
X39496831Y-21267677D01*
X39458281Y-21255983D01*
X39458276Y-21255982D01*
X39458273Y-21255981D01*
X39458270Y-21255980D01*
X39432848Y-21250924D01*
X39420398Y-21248448D01*
X39420394Y-21248447D01*
X39420381Y-21248445D01*
X39383078Y-21244772D01*
X39380309Y-21244500D01*
X39380308Y-21244500D01*
X36176183Y-21244500D01*
X36176173Y-21244500D01*
X36167423Y-21244929D01*
X36156035Y-21245488D01*
X36136752Y-21247386D01*
X36116757Y-21250351D01*
X36107367Y-21252220D01*
X36107362Y-21252221D01*
X36068844Y-21263906D01*
X36068832Y-21263910D01*
X36033149Y-21278689D01*
X35997592Y-21297696D01*
X35989617Y-21303025D01*
X35973468Y-21315003D01*
X35973460Y-21315009D01*
X35973454Y-21315014D01*
X35958467Y-21327312D01*
X35958459Y-21327318D01*
X35958458Y-21327320D01*
X35943527Y-21340852D01*
X35800087Y-21484291D01*
X35767414Y-21526871D01*
X35767413Y-21526873D01*
X35741842Y-21571141D01*
X35741831Y-21571135D01*
X35704739Y-21635377D01*
X35704197Y-21636317D01*
X35704180Y-21636332D01*
X35684503Y-21661977D01*
X35661977Y-21684503D01*
X35636298Y-21704208D01*
X35527169Y-21767215D01*
X35526871Y-21767414D01*
X35484287Y-21800090D01*
X35265863Y-22018515D01*
X35265861Y-22018517D01*
X35252320Y-22033458D01*
X35252312Y-22033467D01*
X35252103Y-22033722D01*
X35240003Y-22048468D01*
X35228025Y-22064617D01*
X35222696Y-22072592D01*
X35203688Y-22108150D01*
X35203683Y-22108161D01*
X35188913Y-22143825D01*
X35188906Y-22143844D01*
X35177220Y-22182370D01*
X35177219Y-22182376D01*
X35175350Y-22191772D01*
X35175348Y-22191783D01*
X35175347Y-22191790D01*
X35172393Y-22211705D01*
X35172391Y-22211719D01*
X35172390Y-22211730D01*
X35170489Y-22231040D01*
X35170488Y-22231052D01*
X35170295Y-22234980D01*
X35169500Y-22251173D01*
X35169500Y-23773826D01*
X35170412Y-23792410D01*
X35170489Y-23793960D01*
X35170489Y-23793967D01*
X35172388Y-23813249D01*
X35172394Y-23813302D01*
X35175343Y-23833192D01*
X35177215Y-23842609D01*
X35177216Y-23842613D01*
X35188910Y-23881168D01*
X35203689Y-23916852D01*
X35211541Y-23931540D01*
X35222685Y-23952389D01*
X35222689Y-23952395D01*
X35222693Y-23952402D01*
X35227996Y-23960340D01*
X35240009Y-23976538D01*
X35240023Y-23976555D01*
X35252315Y-23991534D01*
X35252349Y-23991574D01*
X35265870Y-24006491D01*
X35318507Y-24059128D01*
X35333424Y-24072649D01*
X35333464Y-24072683D01*
X35348443Y-24084975D01*
X35348460Y-24084989D01*
X35364658Y-24097002D01*
X35372599Y-24102307D01*
X35372604Y-24102310D01*
X35372610Y-24102314D01*
X35408131Y-24121302D01*
X35443812Y-24136083D01*
X35482366Y-24147779D01*
X35488700Y-24149039D01*
X35488700Y-24149038D01*
X35492652Y-24149825D01*
X35492653Y-24149825D01*
X35493018Y-24149897D01*
X35493066Y-24149922D01*
X35493216Y-24149937D01*
X35518890Y-24155044D01*
X35532576Y-24154586D01*
X35543748Y-24155135D01*
X35551170Y-24155500D01*
X36354515Y-24155500D01*
X36421554Y-24175185D01*
X36467309Y-24227989D01*
X36477253Y-24297147D01*
X36448228Y-24360703D01*
X36442196Y-24367181D01*
X36021932Y-24787444D01*
X36016535Y-24793114D01*
X36014924Y-24794806D01*
X36009766Y-24800500D01*
X36006719Y-24803863D01*
X36000161Y-24811468D01*
X35999331Y-24812480D01*
X35981930Y-24837203D01*
X35963256Y-24868383D01*
X35963241Y-24868408D01*
X35949678Y-24895372D01*
X35949673Y-24895383D01*
X35944685Y-24907432D01*
X35944670Y-24907473D01*
X35935204Y-24936142D01*
X35926365Y-24971454D01*
X35921205Y-25001219D01*
X35921203Y-25001236D01*
X35921082Y-25002462D01*
X35920343Y-25012496D01*
X35919747Y-25024630D01*
X35919500Y-25034732D01*
X35919500Y-28365307D01*
X35919741Y-28375267D01*
X35920329Y-28387321D01*
X35921066Y-28397376D01*
X35921186Y-28398596D01*
X35926336Y-28428373D01*
X35935170Y-28463733D01*
X35935171Y-28463736D01*
X35935174Y-28463745D01*
X35944677Y-28492546D01*
X35949679Y-28504627D01*
X35949688Y-28504645D01*
X35949689Y-28504647D01*
X35963295Y-28531679D01*
X35982038Y-28562944D01*
X35999499Y-28587723D01*
X36000284Y-28588679D01*
X36006851Y-28596287D01*
X36006861Y-28596298D01*
X36015002Y-28605276D01*
X36015014Y-28605288D01*
X36015018Y-28605293D01*
X36021930Y-28612551D01*
X36512426Y-29103047D01*
X36512446Y-29103066D01*
X36512451Y-29103071D01*
X36519728Y-29110002D01*
X36528718Y-29118153D01*
X36528738Y-29118171D01*
X36535308Y-29123840D01*
X36536340Y-29124730D01*
X36537324Y-29125538D01*
X36562067Y-29142971D01*
X36593308Y-29161701D01*
X36620340Y-29175309D01*
X36632383Y-29180297D01*
X36653922Y-29187415D01*
X36661041Y-29189768D01*
X36692547Y-29197667D01*
X36696280Y-29198603D01*
X36696283Y-29198603D01*
X36696294Y-29198606D01*
X36726015Y-29203773D01*
X36726022Y-29203773D01*
X36726034Y-29203776D01*
X36726047Y-29203777D01*
X36726060Y-29203779D01*
X36726915Y-29203864D01*
X36726913Y-29203874D01*
X36726918Y-29203875D01*
X36726920Y-29203864D01*
X36727233Y-29203894D01*
X36727382Y-29203909D01*
X36737376Y-29204647D01*
X36749598Y-29205251D01*
X36759703Y-29205500D01*
X36759722Y-29205500D01*
X39538072Y-29205500D01*
X39538081Y-29205500D01*
X39558298Y-29204503D01*
X39582575Y-29202103D01*
X39602591Y-29199123D01*
X39609874Y-29197669D01*
X39622184Y-29194815D01*
X39636915Y-29190919D01*
X39636919Y-29190917D01*
X39642115Y-29189543D01*
X39642659Y-29191600D01*
X39703225Y-29187956D01*
X39764166Y-29222132D01*
X39796956Y-29283829D01*
X39799500Y-29308817D01*
X39799500Y-29485361D01*
X39799117Y-29495095D01*
X39798353Y-29504797D01*
X39797210Y-29514457D01*
X39795924Y-29522578D01*
X39795923Y-29522585D01*
X39789439Y-29563517D01*
X39784896Y-29582438D01*
X39780045Y-29597366D01*
X39762433Y-29631929D01*
X39753198Y-29644640D01*
X39740561Y-29659436D01*
X39659436Y-29740561D01*
X39644640Y-29753198D01*
X39631929Y-29762433D01*
X39597364Y-29780045D01*
X39582435Y-29784896D01*
X39563516Y-29789439D01*
X39554394Y-29790883D01*
X39533175Y-29794245D01*
X39514435Y-29797213D01*
X39504784Y-29798355D01*
X39495102Y-29799117D01*
X39485374Y-29799500D01*
X29768692Y-29799500D01*
X29733756Y-29794477D01*
X29708514Y-29787065D01*
X29655769Y-29755769D01*
X29431347Y-29531347D01*
X29397862Y-29470024D01*
X29397415Y-29419453D01*
X29397965Y-29416688D01*
X29397968Y-29416679D01*
X29399547Y-29408745D01*
X29402510Y-29388783D01*
X29404510Y-29368483D01*
X29405500Y-29348334D01*
X29405500Y-28065693D01*
X29399822Y-28017721D01*
X29388487Y-27970506D01*
X29382632Y-27950604D01*
X29333974Y-27873166D01*
X29329637Y-27867728D01*
X29331331Y-27866376D01*
X29302834Y-27814188D01*
X29300000Y-27787830D01*
X29300000Y-26783807D01*
X29305021Y-26748877D01*
X29312436Y-26723625D01*
X29343730Y-26670883D01*
X29415192Y-26599422D01*
X29443445Y-26578274D01*
X29466537Y-26565666D01*
X29525960Y-26550500D01*
X30417253Y-26550500D01*
X30417299Y-26550729D01*
X30419428Y-26550500D01*
X30438699Y-26550500D01*
X30505738Y-26570185D01*
X30551493Y-26622989D01*
X30561437Y-26692147D01*
X30544186Y-26739680D01*
X30542391Y-26742585D01*
X30524585Y-26765086D01*
X30339541Y-26950129D01*
X30339537Y-26950134D01*
X30339536Y-26950135D01*
X30296680Y-27024361D01*
X30281738Y-27080133D01*
X30281737Y-27080138D01*
X30274500Y-27107144D01*
X30274500Y-28392858D01*
X30277414Y-28403733D01*
X30277418Y-28403747D01*
X30278560Y-28408006D01*
X30296682Y-28475640D01*
X30304705Y-28489535D01*
X30339535Y-28549862D01*
X30339537Y-28549864D01*
X30950137Y-29160464D01*
X30950829Y-29160962D01*
X30953327Y-29162307D01*
X30983142Y-29179520D01*
X31024362Y-29203318D01*
X31107147Y-29225500D01*
X31107149Y-29225500D01*
X33242851Y-29225500D01*
X33242853Y-29225500D01*
X33325639Y-29203318D01*
X33399862Y-29160465D01*
X33435902Y-29124424D01*
X33464153Y-29103275D01*
X33487245Y-29090667D01*
X33546670Y-29075500D01*
X34187021Y-29075500D01*
X34221955Y-29080523D01*
X34253162Y-29089686D01*
X34271385Y-29098334D01*
X34271725Y-29097565D01*
X34282234Y-29102205D01*
X34282235Y-29102206D01*
X34385009Y-29147585D01*
X34410135Y-29150500D01*
X34759864Y-29150499D01*
X34759879Y-29150497D01*
X34759882Y-29150497D01*
X34759888Y-29150496D01*
X34760019Y-29150487D01*
X34760736Y-29150397D01*
X34784987Y-29147586D01*
X34784987Y-29147585D01*
X34784991Y-29147585D01*
X34784992Y-29147584D01*
X34790676Y-29146925D01*
X34790678Y-29146925D01*
X34790688Y-29146924D01*
X34796513Y-29146248D01*
X34809595Y-29136721D01*
X34838609Y-29123909D01*
X34872585Y-29114396D01*
X34897754Y-29111100D01*
X34963932Y-29120616D01*
X35025009Y-29147585D01*
X35050135Y-29150500D01*
X35399864Y-29150499D01*
X35399879Y-29150497D01*
X35399882Y-29150497D01*
X35399888Y-29150496D01*
X35400019Y-29150487D01*
X35400736Y-29150397D01*
X35424987Y-29147586D01*
X35424987Y-29147585D01*
X35424990Y-29147585D01*
X35424991Y-29147585D01*
X35424991Y-29147584D01*
X35425102Y-29147572D01*
X35426862Y-29146758D01*
X35527765Y-29102206D01*
X35607206Y-29022765D01*
X35652585Y-28919991D01*
X35655500Y-28894865D01*
X35655499Y-28605136D01*
X35655497Y-28605117D01*
X35652586Y-28580012D01*
X35652585Y-28580010D01*
X35652585Y-28580009D01*
X35607206Y-28477235D01*
X35527765Y-28397794D01*
X35526680Y-28396709D01*
X35521940Y-28392950D01*
X35513891Y-28385940D01*
X35487944Y-28354433D01*
X35485464Y-28350138D01*
X35485461Y-28350134D01*
X35420543Y-28285216D01*
X35420520Y-28285195D01*
X35155510Y-28020185D01*
X34902025Y-27766699D01*
X34880873Y-27738443D01*
X34868266Y-27715354D01*
X34853099Y-27655929D01*
X34853099Y-27597943D01*
X34853098Y-27597929D01*
X34851010Y-27579920D01*
X34851009Y-27579914D01*
X34850695Y-27577206D01*
X34850186Y-27572812D01*
X34850185Y-27572810D01*
X34850185Y-27572809D01*
X34826237Y-27518572D01*
X34816723Y-27484592D01*
X34813428Y-27459429D01*
X34822943Y-27393249D01*
X34849635Y-27332800D01*
X34849634Y-27332800D01*
X34040187Y-27332800D01*
X34040186Y-27332800D01*
X34040185Y-27332800D01*
X34019391Y-27340482D01*
X34018715Y-27338654D01*
X33985773Y-27353447D01*
X33982220Y-27353935D01*
X33924410Y-27348136D01*
X33920024Y-27346602D01*
X33898964Y-27336943D01*
X33893190Y-27333609D01*
X33893185Y-27333607D01*
X33799999Y-27308638D01*
X33765892Y-27299500D01*
X33765891Y-27299500D01*
X33634108Y-27299500D01*
X33506808Y-27333609D01*
X33506806Y-27333610D01*
X33392696Y-27399493D01*
X33392682Y-27399502D01*
X33392677Y-27399506D01*
X33299506Y-27492677D01*
X33299502Y-27492682D01*
X33299493Y-27492696D01*
X33233607Y-27606810D01*
X33233607Y-27606811D01*
X33210568Y-27692798D01*
X33210567Y-27692802D01*
X33206607Y-27707585D01*
X33199500Y-27734108D01*
X33199500Y-27865892D01*
X33202806Y-27878229D01*
X33207295Y-27894982D01*
X33207295Y-27894985D01*
X33233608Y-27993188D01*
X33262838Y-28043814D01*
X33299500Y-28107314D01*
X33389340Y-28197154D01*
X33415020Y-28234584D01*
X33419235Y-28244094D01*
X33428519Y-28256801D01*
X33432692Y-28326546D01*
X33398496Y-28387476D01*
X33369997Y-28408296D01*
X33366758Y-28410016D01*
X33315126Y-28422875D01*
X33315201Y-28423440D01*
X33310232Y-28424093D01*
X33308602Y-28424500D01*
X33307141Y-28424500D01*
X33224361Y-28446680D01*
X33150148Y-28489528D01*
X33150134Y-28489537D01*
X33114098Y-28525574D01*
X33085846Y-28546724D01*
X33062759Y-28559331D01*
X33003330Y-28574500D01*
X32460494Y-28574500D01*
X32425558Y-28569477D01*
X32416414Y-28566792D01*
X32357636Y-28529017D01*
X32328612Y-28465461D01*
X32338556Y-28396303D01*
X32377654Y-28348091D01*
X32381539Y-28345220D01*
X32405127Y-28331524D01*
X32472474Y-28301788D01*
X32472479Y-28301785D01*
X32551785Y-28222479D01*
X32597034Y-28120000D01*
X31529030Y-28120000D01*
X31494089Y-28114975D01*
X31479090Y-28110570D01*
X31420344Y-28072827D01*
X31419157Y-28071458D01*
X31391677Y-28016583D01*
X31390032Y-28009021D01*
X31387200Y-27982668D01*
X31387200Y-27861829D01*
X31392223Y-27826893D01*
X31396627Y-27811895D01*
X31434372Y-27753144D01*
X31435741Y-27751957D01*
X31490620Y-27724477D01*
X31498179Y-27722833D01*
X31524532Y-27720000D01*
X32597035Y-27720000D01*
X32600982Y-27713942D01*
X32599430Y-27702090D01*
X32610243Y-27633063D01*
X32612531Y-27628214D01*
X32646311Y-27585044D01*
X32647484Y-27584087D01*
X32663834Y-27572812D01*
X32719862Y-27540465D01*
X32960465Y-27299862D01*
X32988217Y-27251793D01*
X33003318Y-27225638D01*
X33025500Y-27142853D01*
X33025500Y-26932800D01*
X34055565Y-26932800D01*
X34055566Y-26932800D01*
X34252600Y-26932800D01*
X34252600Y-26719010D01*
X34652600Y-26719010D01*
X34652600Y-26932800D01*
X34849634Y-26932800D01*
X34804385Y-26830320D01*
X34725077Y-26751012D01*
X34725074Y-26751010D01*
X34725073Y-26751010D01*
X34652600Y-26719009D01*
X34652600Y-26719010D01*
X34252600Y-26719010D01*
X34252600Y-26719009D01*
X34180122Y-26751011D01*
X34100815Y-26830318D01*
X34100812Y-26830323D01*
X34055565Y-26932800D01*
X33025500Y-26932800D01*
X33025500Y-25801505D01*
X33030522Y-25766572D01*
X33032934Y-25758358D01*
X33037934Y-25741327D01*
X33069235Y-25688578D01*
X33074257Y-25683557D01*
X33100500Y-25657314D01*
X33166392Y-25543186D01*
X33200500Y-25415892D01*
X33200500Y-25284108D01*
X33166392Y-25156814D01*
X33166387Y-25156806D01*
X33151777Y-25131501D01*
X33100500Y-25042686D01*
X33007314Y-24949500D01*
X32921635Y-24900033D01*
X32893187Y-24883608D01*
X32812868Y-24862087D01*
X32812868Y-24862086D01*
X32765893Y-24849500D01*
X32765892Y-24849500D01*
X32634108Y-24849500D01*
X32506808Y-24883609D01*
X32506806Y-24883610D01*
X32392696Y-24949493D01*
X32392685Y-24949500D01*
X32325285Y-25016900D01*
X32297027Y-25038052D01*
X32283309Y-25045542D01*
X32215051Y-25060393D01*
X32213245Y-25060264D01*
X32155044Y-25040896D01*
X32148529Y-25036709D01*
X32127893Y-25020079D01*
X32057316Y-24949502D01*
X32057314Y-24949500D01*
X31971635Y-24900033D01*
X31943187Y-24883608D01*
X31862868Y-24862087D01*
X31862868Y-24862086D01*
X31815893Y-24849500D01*
X31815892Y-24849500D01*
X31684108Y-24849500D01*
X31556808Y-24883609D01*
X31556806Y-24883610D01*
X31442696Y-24949493D01*
X31442685Y-24949500D01*
X31375285Y-25016900D01*
X31347027Y-25038052D01*
X31333309Y-25045542D01*
X31265051Y-25060393D01*
X31263245Y-25060264D01*
X31205044Y-25040896D01*
X31198529Y-25036709D01*
X31177893Y-25020079D01*
X31107316Y-24949502D01*
X31107314Y-24949500D01*
X31021635Y-24900033D01*
X30993187Y-24883608D01*
X30912868Y-24862087D01*
X30912868Y-24862086D01*
X30865893Y-24849500D01*
X30865892Y-24849500D01*
X30734108Y-24849500D01*
X30606808Y-24883609D01*
X30606806Y-24883610D01*
X30492696Y-24949493D01*
X30492682Y-24949502D01*
X30492677Y-24949506D01*
X30399506Y-25042677D01*
X30399502Y-25042682D01*
X30399493Y-25042696D01*
X30333610Y-25156806D01*
X30333609Y-25156808D01*
X30308506Y-25250497D01*
X30299500Y-25284106D01*
X30299500Y-25284108D01*
X30299500Y-25415892D01*
X30301210Y-25422273D01*
X30333608Y-25543187D01*
X30354804Y-25579898D01*
X30360563Y-25589873D01*
X30360565Y-25589878D01*
X30403440Y-25664139D01*
X30406630Y-25669039D01*
X30417140Y-25688287D01*
X30431992Y-25756553D01*
X30431863Y-25758358D01*
X30412495Y-25816556D01*
X30408314Y-25823062D01*
X30391678Y-25843705D01*
X30284809Y-25950574D01*
X30256559Y-25971723D01*
X30233473Y-25984330D01*
X30174042Y-25999500D01*
X29529500Y-25999500D01*
X29462461Y-25979815D01*
X29416706Y-25927011D01*
X29405949Y-25886037D01*
X29405500Y-25880772D01*
X29405500Y-25765728D01*
X29401074Y-25723309D01*
X29392212Y-25681301D01*
X29387147Y-25665592D01*
X29385948Y-25651525D01*
X29386629Y-25648173D01*
X29385499Y-25640994D01*
X29385499Y-25359014D01*
X29391481Y-25320965D01*
X29392214Y-25318693D01*
X29401075Y-25276687D01*
X29405500Y-25234271D01*
X29405500Y-25151665D01*
X29404510Y-25131516D01*
X29402510Y-25111216D01*
X29399547Y-25091254D01*
X29397968Y-25083320D01*
X29386276Y-25044784D01*
X29370752Y-25007309D01*
X29351770Y-24971795D01*
X29347277Y-24965070D01*
X29347270Y-24965060D01*
X29347270Y-24965059D01*
X29339819Y-24955013D01*
X29335259Y-24948864D01*
X29335253Y-24948857D01*
X29335246Y-24948847D01*
X29322337Y-24933118D01*
X29322333Y-24933113D01*
X29322322Y-24933100D01*
X29322296Y-24933071D01*
X29308813Y-24918196D01*
X29308795Y-24918177D01*
X29308777Y-24918157D01*
X29281842Y-24891222D01*
X29281828Y-24891209D01*
X29266908Y-24877685D01*
X29255586Y-24868393D01*
X29251141Y-24864745D01*
X29234932Y-24852724D01*
X29234930Y-24852722D01*
X29234907Y-24852706D01*
X29228210Y-24848232D01*
X29228208Y-24848231D01*
X29192691Y-24829248D01*
X29192688Y-24829247D01*
X29192683Y-24829244D01*
X29155199Y-24813718D01*
X29116656Y-24802026D01*
X29116651Y-24802025D01*
X29116648Y-24802024D01*
X29108724Y-24800447D01*
X29108710Y-24800445D01*
X29088796Y-24797490D01*
X29088729Y-24797482D01*
X29068504Y-24795491D01*
X29068467Y-24795488D01*
X29048335Y-24794500D01*
X29048325Y-24794500D01*
X27642464Y-24794500D01*
X27594504Y-24800176D01*
X27594495Y-24800178D01*
X27547291Y-24811511D01*
X27527384Y-24817366D01*
X27527380Y-24817368D01*
X27447034Y-24867853D01*
X27379798Y-24886853D01*
X27312962Y-24866485D01*
X27267749Y-24813217D01*
X27258512Y-24743960D01*
X27261288Y-24730766D01*
X27263564Y-24722273D01*
X27275500Y-24677727D01*
X27275500Y-24572273D01*
X27248207Y-24470413D01*
X27195480Y-24379087D01*
X27120913Y-24304520D01*
X27038263Y-24256802D01*
X27010528Y-24234991D01*
X27000945Y-24224942D01*
X26968931Y-24162842D01*
X26975571Y-24093291D01*
X26978735Y-24085389D01*
X27006167Y-24043802D01*
X28015460Y-23034511D01*
X28052134Y-22970989D01*
X28055021Y-22965989D01*
X28075500Y-22889562D01*
X28075500Y-22717329D01*
X28080523Y-22682393D01*
X28081189Y-22680127D01*
X28084927Y-22667394D01*
X28122699Y-22608620D01*
X28125966Y-22605789D01*
X28189521Y-22576763D01*
X28207171Y-22575500D01*
X28214560Y-22575500D01*
X28214562Y-22575500D01*
X28290989Y-22555021D01*
X28301015Y-22549232D01*
X28311966Y-22545717D01*
X28316171Y-22542297D01*
X28350292Y-22533417D01*
X28350950Y-22533207D01*
X28357871Y-22532530D01*
X28358132Y-22532534D01*
X28358333Y-22532485D01*
X28360983Y-22532226D01*
X28378706Y-22535600D01*
X28408077Y-22540406D01*
X28409034Y-22537149D01*
X28419275Y-22540156D01*
X28446336Y-22551744D01*
X28457661Y-22558282D01*
X28522854Y-22575750D01*
X28525551Y-22576774D01*
X28534978Y-22579000D01*
X28615020Y-22579000D01*
X28616672Y-22579000D01*
X28622877Y-22576894D01*
X28628080Y-22575500D01*
X28692337Y-22558283D01*
X28692338Y-22558283D01*
X28721016Y-22541725D01*
X28761663Y-22518257D01*
X28818257Y-22461663D01*
X28856956Y-22394636D01*
X28858283Y-22392338D01*
X28858283Y-22392336D01*
X28872555Y-22339071D01*
X28878999Y-22315021D01*
X28879000Y-22315020D01*
X28879000Y-22234980D01*
X28878999Y-22234978D01*
X28858282Y-22157661D01*
X28853246Y-22148939D01*
X28840130Y-22116175D01*
X28835694Y-22097890D01*
X28837219Y-22033725D01*
X28840157Y-22023719D01*
X28851750Y-21996654D01*
X28855020Y-21990990D01*
X28855021Y-21990989D01*
X28875500Y-21914562D01*
X28875500Y-21585438D01*
X28855021Y-21509011D01*
X28853463Y-21506312D01*
X28853462Y-21506310D01*
X28853462Y-21506309D01*
X28842878Y-21487975D01*
X28815466Y-21440498D01*
X28815461Y-21440490D01*
X28815456Y-21440485D01*
X28815450Y-21440478D01*
X28809080Y-21434108D01*
X33299500Y-21434108D01*
X33299500Y-21565892D01*
X33301613Y-21573779D01*
X33301615Y-21573787D01*
X33302522Y-21577169D01*
X33333608Y-21693187D01*
X33344371Y-21711828D01*
X33399500Y-21807314D01*
X33399502Y-21807316D01*
X33425573Y-21833387D01*
X33446723Y-21861639D01*
X33459331Y-21884728D01*
X33474500Y-21944157D01*
X33474500Y-23948494D01*
X33469476Y-23983431D01*
X33462064Y-24008672D01*
X33430768Y-24061417D01*
X33399503Y-24092680D01*
X33399493Y-24092696D01*
X33333607Y-24206810D01*
X33333607Y-24206812D01*
X33321556Y-24251791D01*
X33321556Y-24251793D01*
X33299500Y-24334108D01*
X33299500Y-24465895D01*
X33309845Y-24504504D01*
X33309846Y-24504504D01*
X33309846Y-24504505D01*
X33333608Y-24593187D01*
X33366554Y-24650250D01*
X33399500Y-24707314D01*
X33492686Y-24800500D01*
X33492687Y-24800501D01*
X33492689Y-24800502D01*
X33514712Y-24813217D01*
X33591521Y-24857563D01*
X33599357Y-24862087D01*
X33606814Y-24866392D01*
X33606816Y-24866392D01*
X33606817Y-24866393D01*
X33625232Y-24871327D01*
X33734108Y-24900500D01*
X33734110Y-24900500D01*
X33865890Y-24900500D01*
X33865892Y-24900500D01*
X33993186Y-24866392D01*
X34107314Y-24800500D01*
X34200500Y-24707314D01*
X34266392Y-24593186D01*
X34300500Y-24465892D01*
X34300500Y-24334108D01*
X34266392Y-24206814D01*
X34260883Y-24197273D01*
X34257563Y-24191521D01*
X34200500Y-24092686D01*
X34166119Y-24058305D01*
X34159523Y-24048591D01*
X34158460Y-24045284D01*
X34153274Y-24038356D01*
X34140667Y-24015267D01*
X34125500Y-23955842D01*
X34125500Y-21951505D01*
X34130522Y-21916572D01*
X34137934Y-21891327D01*
X34169229Y-21838584D01*
X34200500Y-21807314D01*
X34266392Y-21693186D01*
X34300500Y-21565892D01*
X34300500Y-21434108D01*
X34266392Y-21306814D01*
X34265100Y-21304577D01*
X34257563Y-21291521D01*
X34200500Y-21192686D01*
X34107314Y-21099500D01*
X34050250Y-21066554D01*
X33993187Y-21033608D01*
X33929539Y-21016554D01*
X33865892Y-20999500D01*
X33865891Y-20999500D01*
X33734108Y-20999500D01*
X33606808Y-21033609D01*
X33606806Y-21033610D01*
X33492696Y-21099493D01*
X33492682Y-21099502D01*
X33492677Y-21099506D01*
X33399506Y-21192677D01*
X33399502Y-21192682D01*
X33399493Y-21192696D01*
X33333611Y-21306804D01*
X33333609Y-21306809D01*
X33333608Y-21306811D01*
X33333608Y-21306812D01*
X33330329Y-21319049D01*
X33312037Y-21387319D01*
X33299500Y-21434108D01*
X28809080Y-21434108D01*
X28609517Y-21234545D01*
X28609515Y-21234544D01*
X28609512Y-21234541D01*
X28609504Y-21234535D01*
X28561484Y-21206811D01*
X28541872Y-21195488D01*
X28541050Y-21195004D01*
X28540995Y-21194981D01*
X28540991Y-21194980D01*
X28540990Y-21194979D01*
X28515513Y-21188152D01*
X28515509Y-21188150D01*
X28464563Y-21174500D01*
X28464562Y-21174500D01*
X27885438Y-21174500D01*
X27847224Y-21184739D01*
X27847221Y-21184739D01*
X27812183Y-21194128D01*
X27812182Y-21194128D01*
X27809009Y-21194979D01*
X27809004Y-21194982D01*
X27740495Y-21234535D01*
X27740491Y-21234538D01*
X27650535Y-21324493D01*
X27645378Y-21328653D01*
X27640957Y-21330486D01*
X27626959Y-21340965D01*
X27614776Y-21347617D01*
X27582946Y-21354540D01*
X27580837Y-21355415D01*
X27579790Y-21355226D01*
X27546503Y-21362467D01*
X27481039Y-21338048D01*
X27479701Y-21337046D01*
X27442517Y-21291993D01*
X27440328Y-21287487D01*
X27432088Y-21265394D01*
X27416393Y-21206817D01*
X27416391Y-21206812D01*
X27395439Y-21170522D01*
X27350500Y-21092686D01*
X27258515Y-21000701D01*
X27247818Y-20988503D01*
X27238000Y-20975707D01*
X27228993Y-20962228D01*
X27216740Y-20941006D01*
X27215562Y-20938385D01*
X27211453Y-20931737D01*
X27211451Y-20931734D01*
X27210478Y-20930160D01*
X27210469Y-20930144D01*
X27210466Y-20930141D01*
X27210465Y-20930138D01*
X27009862Y-20729535D01*
X27002962Y-20725551D01*
X26979789Y-20712171D01*
X26979782Y-20712168D01*
X26972750Y-20708108D01*
X26935640Y-20686682D01*
X26894246Y-20675591D01*
X26886401Y-20673489D01*
X26886394Y-20673486D01*
X26852854Y-20664500D01*
X26852853Y-20664500D01*
X26852852Y-20664500D01*
X26605840Y-20664500D01*
X26570904Y-20659477D01*
X26545662Y-20652065D01*
X26492918Y-20620770D01*
X26427513Y-20555365D01*
X26427512Y-20555364D01*
X26323173Y-20504356D01*
X26323169Y-20504354D01*
X26313507Y-20502946D01*
X26313507Y-20502947D01*
X26303843Y-20501539D01*
X26255528Y-20494500D01*
X26255523Y-20494500D01*
X25844475Y-20494500D01*
X25844472Y-20494500D01*
X25814032Y-20498934D01*
X25793738Y-20501891D01*
X25793737Y-20501890D01*
X25776827Y-20504354D01*
X25672484Y-20555365D01*
X25590363Y-20637486D01*
X25539355Y-20741825D01*
X25538407Y-20745925D01*
X25538060Y-20750718D01*
X25529500Y-20809472D01*
X25529500Y-21170528D01*
X25534787Y-21206814D01*
X25539355Y-21238171D01*
X25588168Y-21338020D01*
X25590366Y-21342515D01*
X25622563Y-21374711D01*
X25643717Y-21402970D01*
X25651208Y-21416690D01*
X25666059Y-21484948D01*
X25665930Y-21486754D01*
X25646557Y-21544964D01*
X25642376Y-21551469D01*
X25625745Y-21572105D01*
X25590366Y-21607483D01*
X25539355Y-21711827D01*
X25538407Y-21715925D01*
X25538060Y-21720718D01*
X25529500Y-21779472D01*
X25529500Y-22140528D01*
X25530726Y-22148940D01*
X25535178Y-22179502D01*
X25539354Y-22208168D01*
X25539356Y-22208173D01*
X25590364Y-22312512D01*
X25590365Y-22312513D01*
X25666161Y-22388309D01*
X25687312Y-22416565D01*
X25694803Y-22430285D01*
X25709654Y-22498545D01*
X25709095Y-22506369D01*
X25695466Y-22554661D01*
X25689420Y-22566307D01*
X25682512Y-22586845D01*
X25652414Y-22655007D01*
X25651844Y-22657711D01*
X25651589Y-22662124D01*
X25649500Y-22680127D01*
X25649500Y-23029849D01*
X25649502Y-23029888D01*
X25652413Y-23054990D01*
X25652413Y-23054991D01*
X25652753Y-23056350D01*
X25654906Y-23060635D01*
X25676360Y-23109225D01*
X25685876Y-23143211D01*
X25689170Y-23168368D01*
X25679654Y-23234552D01*
X25652964Y-23294999D01*
X25652965Y-23295000D01*
X26447035Y-23295000D01*
X26423638Y-23242010D01*
X26414123Y-23208031D01*
X26410828Y-23182867D01*
X26420344Y-23116684D01*
X26447585Y-23054991D01*
X26450500Y-23029865D01*
X26450499Y-22680136D01*
X26450498Y-22680131D01*
X26449807Y-22674169D01*
X26449807Y-22674167D01*
X26447586Y-22655012D01*
X26447585Y-22655010D01*
X26447585Y-22655009D01*
X26413563Y-22577958D01*
X26409109Y-22566313D01*
X26396252Y-22526871D01*
X26394188Y-22457041D01*
X26395991Y-22450155D01*
X26428264Y-22393882D01*
X26509636Y-22312511D01*
X26509636Y-22312509D01*
X26515282Y-22306864D01*
X26537250Y-22289389D01*
X26539706Y-22287853D01*
X26544368Y-22285237D01*
X26546223Y-22283781D01*
X26551833Y-22280276D01*
X26567134Y-22275992D01*
X26594160Y-22263657D01*
X26599023Y-22262723D01*
X26622400Y-22260500D01*
X27332670Y-22260500D01*
X27367606Y-22265523D01*
X27382604Y-22269927D01*
X27441355Y-22307672D01*
X27442542Y-22309041D01*
X27470018Y-22363902D01*
X27471663Y-22371460D01*
X27474500Y-22397831D01*
X27474500Y-22656337D01*
X27469476Y-22691274D01*
X27462064Y-22716515D01*
X27430769Y-22769259D01*
X26553955Y-23646073D01*
X26525704Y-23667222D01*
X26502616Y-23679830D01*
X26443186Y-23695000D01*
X25652966Y-23695000D01*
X25698214Y-23797479D01*
X25743344Y-23842609D01*
X25777520Y-23876785D01*
X25777524Y-23876788D01*
X25777526Y-23876789D01*
X25811724Y-23891888D01*
X25880123Y-23922089D01*
X25883895Y-23922526D01*
X25918012Y-23931540D01*
X25930793Y-23936960D01*
X25984827Y-23981255D01*
X26006336Y-24047729D01*
X26006605Y-24057565D01*
X26002426Y-24093047D01*
X25974500Y-24197271D01*
X25974500Y-24282670D01*
X25969475Y-24317614D01*
X25965070Y-24332612D01*
X25927327Y-24391355D01*
X25925958Y-24392542D01*
X25871097Y-24420018D01*
X25863539Y-24421663D01*
X25837168Y-24424500D01*
X25043469Y-24424500D01*
X25011375Y-24420275D01*
X24984762Y-24413144D01*
X24969402Y-24407930D01*
X24954588Y-24401793D01*
X24954587Y-24401793D01*
X24946980Y-24398642D01*
X24938819Y-24397568D01*
X24915631Y-24391355D01*
X24852727Y-24374500D01*
X24852726Y-24374500D01*
X24747273Y-24374500D01*
X24645413Y-24401792D01*
X24645408Y-24401795D01*
X24554088Y-24454518D01*
X24554082Y-24454523D01*
X24479523Y-24529082D01*
X24479518Y-24529088D01*
X24426795Y-24620408D01*
X24426792Y-24620413D01*
X24399500Y-24722273D01*
X24399500Y-24758170D01*
X24394475Y-24793114D01*
X24390070Y-24808112D01*
X24352327Y-24866855D01*
X24350958Y-24868042D01*
X24296097Y-24895518D01*
X24288539Y-24897163D01*
X24262168Y-24900000D01*
X24016017Y-24900000D01*
X23948978Y-24880315D01*
X23936834Y-24871397D01*
X23858213Y-24824425D01*
X23858203Y-24824420D01*
X23797071Y-24804557D01*
X23745520Y-24796392D01*
X23733571Y-24794500D01*
X23733570Y-24794500D01*
X20351672Y-24794500D01*
X20351665Y-24794500D01*
X20342535Y-24794948D01*
X20330577Y-24795535D01*
X20262653Y-24779159D01*
X20214365Y-24728661D01*
X20200500Y-24671684D01*
X20200500Y-23613373D01*
X20205521Y-23578446D01*
X20207832Y-23570573D01*
X20208707Y-23567591D01*
X20246477Y-23508812D01*
X20310031Y-23479783D01*
X20379186Y-23489721D01*
X20386172Y-23492911D01*
X20422342Y-23518024D01*
X20423751Y-23519433D01*
X20426952Y-23520877D01*
X20528607Y-23570573D01*
X20547277Y-23573293D01*
X20562438Y-23575502D01*
X20562440Y-23575502D01*
X20562673Y-23575536D01*
X20596739Y-23580500D01*
X20596740Y-23580500D01*
X20596741Y-23580500D01*
X23363261Y-23580500D01*
X23363262Y-23580500D01*
X23367803Y-23579838D01*
X23385971Y-23577191D01*
X23431393Y-23570573D01*
X23536483Y-23519198D01*
X23619198Y-23436483D01*
X23622664Y-23429392D01*
X23626462Y-23421623D01*
X23626464Y-23421616D01*
X23629195Y-23416031D01*
X23649032Y-23386885D01*
X23660180Y-23374684D01*
X23718361Y-23338896D01*
X23732055Y-23335070D01*
X23765411Y-23330500D01*
X24129306Y-23330500D01*
X24129309Y-23330500D01*
X24243886Y-23299799D01*
X24346613Y-23240489D01*
X24430489Y-23156613D01*
X24489799Y-23053886D01*
X24520500Y-22939309D01*
X24520500Y-22820691D01*
X24489799Y-22706114D01*
X24430489Y-22603387D01*
X24346613Y-22519511D01*
X24243886Y-22460201D01*
X24129309Y-22429500D01*
X24129306Y-22429500D01*
X23766245Y-22429500D01*
X23731308Y-22424476D01*
X23715459Y-22419822D01*
X23657759Y-22383274D01*
X23648313Y-22372658D01*
X23629551Y-22344693D01*
X23619198Y-22323516D01*
X23536485Y-22240803D01*
X23524574Y-22234980D01*
X23431391Y-22189426D01*
X23363261Y-22179500D01*
X23363260Y-22179500D01*
X23363255Y-22179500D01*
X20596745Y-22179500D01*
X20596740Y-22179500D01*
X20596739Y-22179500D01*
X20538341Y-22188008D01*
X20528607Y-22189426D01*
X20423512Y-22240804D01*
X20415149Y-22246776D01*
X20415134Y-22246755D01*
X20396531Y-22260682D01*
X20387667Y-22265523D01*
X20386608Y-22266101D01*
X20318335Y-22280953D01*
X20252870Y-22256537D01*
X20210999Y-22200603D01*
X20210997Y-22200599D01*
X20208313Y-22193401D01*
X20200500Y-22150081D01*
X20200500Y-20514635D01*
X20200882Y-20504910D01*
X20201645Y-20495211D01*
X20202790Y-20485539D01*
X20210560Y-20436478D01*
X20215097Y-20417579D01*
X20221058Y-20399229D01*
X20228495Y-20381272D01*
X20244362Y-20350133D01*
X20254512Y-20333570D01*
X20265860Y-20317952D01*
X20278480Y-20303177D01*
X20303177Y-20278480D01*
X20317952Y-20265860D01*
X20333570Y-20254512D01*
X20350133Y-20244362D01*
X20381271Y-20228496D01*
X20399232Y-20221057D01*
X20413456Y-20216436D01*
X20417573Y-20215099D01*
X20436478Y-20210560D01*
X20485572Y-20202784D01*
X20495204Y-20201644D01*
X20504915Y-20200880D01*
X20514627Y-20200500D01*
X39485373Y-20200500D01*
X39495080Y-20200880D01*
G37*
%TD.AperFunction*%
%TD*%
%TA.AperFunction,Conductor*%
%TO.N,GND*%
G36*
X23794701Y-25019862D02*
G01*
X23832481Y-25071862D01*
X23832481Y-25136138D01*
X23807110Y-25177539D01*
X23780040Y-25204608D01*
X23727317Y-25295927D01*
X23727312Y-25295937D01*
X23700021Y-25397787D01*
X23700021Y-25503254D01*
X23727312Y-25605104D01*
X23727317Y-25605114D01*
X23780040Y-25696433D01*
X23780041Y-25696434D01*
X23854608Y-25771001D01*
X23945934Y-25823728D01*
X23945936Y-25823728D01*
X23945937Y-25823729D01*
X24047787Y-25851020D01*
X24047794Y-25851021D01*
X24153248Y-25851021D01*
X24153254Y-25851020D01*
X24255104Y-25823729D01*
X24255103Y-25823729D01*
X24255108Y-25823728D01*
X24346434Y-25771001D01*
X24361474Y-25755961D01*
X24418744Y-25726780D01*
X24435013Y-25725500D01*
X24924677Y-25725500D01*
X25025935Y-25683557D01*
X25025938Y-25683553D01*
X25034452Y-25677866D01*
X25036793Y-25681370D01*
X25076383Y-25661198D01*
X25092652Y-25659918D01*
X25113186Y-25659918D01*
X25113192Y-25659917D01*
X25215042Y-25632626D01*
X25215041Y-25632626D01*
X25215046Y-25632625D01*
X25306372Y-25579898D01*
X25380939Y-25505331D01*
X25433666Y-25414005D01*
X25449440Y-25355135D01*
X25460958Y-25312151D01*
X25460959Y-25312144D01*
X25460959Y-25206691D01*
X25460958Y-25206684D01*
X25440656Y-25130917D01*
X25444020Y-25066730D01*
X25484469Y-25016778D01*
X25541112Y-25000000D01*
X26230350Y-25000000D01*
X26291480Y-25019862D01*
X26318948Y-25057669D01*
X26320480Y-25059123D01*
X26320642Y-25060001D01*
X26329260Y-25071862D01*
X26332107Y-25121882D01*
X26332189Y-25122323D01*
X26332149Y-25122622D01*
X26332268Y-25124704D01*
X26331628Y-25127850D01*
X26331301Y-25129074D01*
X26331301Y-25129464D01*
X26330432Y-25133742D01*
X26316306Y-25158725D01*
X26303948Y-25184632D01*
X26302055Y-25186575D01*
X26285491Y-25203140D01*
X26285489Y-25203142D01*
X26229541Y-25259089D01*
X26189980Y-25327609D01*
X26189977Y-25327617D01*
X26169500Y-25404037D01*
X26169500Y-25629953D01*
X26149638Y-25691083D01*
X26097638Y-25728863D01*
X26037718Y-25728863D01*
X26037419Y-25729963D01*
X26033377Y-25728863D01*
X26033362Y-25728863D01*
X26033325Y-25728849D01*
X26029870Y-25727908D01*
X26004794Y-25725000D01*
X25935000Y-25725000D01*
X25935000Y-27324999D01*
X26004784Y-27324999D01*
X26029878Y-27322088D01*
X26107373Y-27287871D01*
X26171316Y-27281349D01*
X26183305Y-27284697D01*
X26187403Y-27286111D01*
X26270009Y-27322585D01*
X26295135Y-27325500D01*
X26301553Y-27325499D01*
X26315499Y-27330312D01*
X26332562Y-27343188D01*
X26351992Y-27352090D01*
X26355114Y-27355085D01*
X26567864Y-27567835D01*
X26597045Y-27625105D01*
X26586990Y-27688589D01*
X26541540Y-27734039D01*
X26478056Y-27744094D01*
X26467408Y-27741830D01*
X26402733Y-27724500D01*
X26402727Y-27724500D01*
X26297273Y-27724500D01*
X26297266Y-27724500D01*
X26195416Y-27751791D01*
X26195406Y-27751796D01*
X26104087Y-27804519D01*
X26029519Y-27879087D01*
X25976796Y-27970406D01*
X25976791Y-27970416D01*
X25949500Y-28072266D01*
X25949500Y-28177733D01*
X25976791Y-28279583D01*
X25976796Y-28279593D01*
X26022386Y-28358557D01*
X26029520Y-28370913D01*
X26104087Y-28445480D01*
X26195413Y-28498207D01*
X26195415Y-28498207D01*
X26195416Y-28498208D01*
X26297266Y-28525499D01*
X26297273Y-28525500D01*
X26402727Y-28525500D01*
X26402733Y-28525499D01*
X26504583Y-28498208D01*
X26504582Y-28498208D01*
X26504587Y-28498207D01*
X26595913Y-28445480D01*
X26610432Y-28430961D01*
X26667702Y-28401780D01*
X26683971Y-28400500D01*
X28554800Y-28400500D01*
X28656058Y-28358557D01*
X28733557Y-28281058D01*
X28733556Y-28281058D01*
X29022461Y-27992153D01*
X29079731Y-27962973D01*
X29143215Y-27973029D01*
X29188665Y-28018478D01*
X29200000Y-28065693D01*
X29200000Y-29348334D01*
X29198000Y-29368634D01*
X29196421Y-29376568D01*
X29180897Y-29414043D01*
X29176404Y-29420768D01*
X29163467Y-29436532D01*
X28830961Y-29769039D01*
X28773691Y-29798220D01*
X28757422Y-29799500D01*
X23166193Y-29799500D01*
X23105063Y-29779638D01*
X23067283Y-29727638D01*
X23067283Y-29663362D01*
X23092649Y-29621966D01*
X23098089Y-29616524D01*
X23187808Y-29526806D01*
X23219330Y-29505214D01*
X23257995Y-29488142D01*
X23321935Y-29481622D01*
X23341999Y-29488140D01*
X23420009Y-29522585D01*
X23420012Y-29522585D01*
X23420013Y-29522586D01*
X23429494Y-29523685D01*
X23445135Y-29525500D01*
X23794864Y-29525499D01*
X23794870Y-29525499D01*
X23811615Y-29523556D01*
X23819991Y-29522585D01*
X23922765Y-29477206D01*
X24002206Y-29397765D01*
X24002539Y-29397011D01*
X24024141Y-29365473D01*
X24031056Y-29358557D01*
X24031058Y-29358557D01*
X24108557Y-29281058D01*
X24108556Y-29281058D01*
X24408656Y-28980959D01*
X24465925Y-28951780D01*
X24482194Y-28950500D01*
X24502727Y-28950500D01*
X24502733Y-28950499D01*
X24604583Y-28923208D01*
X24604582Y-28923208D01*
X24604587Y-28923207D01*
X24695913Y-28870480D01*
X24770480Y-28795913D01*
X24823207Y-28704587D01*
X24827631Y-28688074D01*
X24862635Y-28634170D01*
X24922641Y-28611134D01*
X24980086Y-28624924D01*
X24996100Y-28634170D01*
X25020409Y-28648205D01*
X25020411Y-28648205D01*
X25020413Y-28648207D01*
X25020414Y-28648207D01*
X25020416Y-28648208D01*
X25122266Y-28675499D01*
X25122273Y-28675500D01*
X25227727Y-28675500D01*
X25227733Y-28675499D01*
X25329583Y-28648208D01*
X25329582Y-28648208D01*
X25329587Y-28648207D01*
X25420913Y-28595480D01*
X25495480Y-28520913D01*
X25548207Y-28429587D01*
X25557366Y-28395406D01*
X25575499Y-28327733D01*
X25575500Y-28327726D01*
X25575500Y-28222273D01*
X25575499Y-28222266D01*
X25548208Y-28120416D01*
X25548207Y-28120415D01*
X25548207Y-28120413D01*
X25495480Y-28029087D01*
X25420913Y-27954520D01*
X25420912Y-27954519D01*
X25329593Y-27901796D01*
X25329583Y-27901791D01*
X25227733Y-27874500D01*
X25227727Y-27874500D01*
X25207194Y-27874500D01*
X25146064Y-27854638D01*
X25133655Y-27844039D01*
X24756058Y-27466443D01*
X24654800Y-27424500D01*
X23932194Y-27424500D01*
X23871064Y-27404638D01*
X23858655Y-27394039D01*
X23680961Y-27216345D01*
X23651780Y-27159075D01*
X23650500Y-27142806D01*
X23650500Y-27069783D01*
X25400001Y-27069783D01*
X25402911Y-27094877D01*
X25448213Y-27197478D01*
X25448216Y-27197482D01*
X25527518Y-27276784D01*
X25527521Y-27276786D01*
X25630125Y-27322090D01*
X25630129Y-27322091D01*
X25655205Y-27324999D01*
X25725000Y-27324998D01*
X25725000Y-27030000D01*
X25400001Y-27030000D01*
X25400001Y-27069783D01*
X23650500Y-27069783D01*
X23650500Y-26815085D01*
X23659846Y-26780206D01*
X25400000Y-26780206D01*
X25400000Y-26820000D01*
X25725000Y-26820000D01*
X25725000Y-26230000D01*
X25400001Y-26230000D01*
X25400001Y-26269783D01*
X25402911Y-26294877D01*
X25448213Y-26397478D01*
X25448216Y-26397482D01*
X25502195Y-26451461D01*
X25531376Y-26508731D01*
X25521321Y-26572215D01*
X25502195Y-26598539D01*
X25448213Y-26652521D01*
X25402909Y-26755125D01*
X25402908Y-26755129D01*
X25400000Y-26780206D01*
X23659846Y-26780206D01*
X23664433Y-26763085D01*
X23698207Y-26704587D01*
X23717500Y-26632585D01*
X23725499Y-26602733D01*
X23725500Y-26602726D01*
X23725500Y-26497273D01*
X23725499Y-26497266D01*
X23698208Y-26395416D01*
X23698207Y-26395415D01*
X23698207Y-26395413D01*
X23645480Y-26304087D01*
X23570913Y-26229520D01*
X23570912Y-26229519D01*
X23479593Y-26176796D01*
X23479583Y-26176791D01*
X23377733Y-26149500D01*
X23377727Y-26149500D01*
X23272273Y-26149500D01*
X23272266Y-26149500D01*
X23170416Y-26176791D01*
X23170406Y-26176796D01*
X23079087Y-26229519D01*
X23004519Y-26304087D01*
X22951796Y-26395406D01*
X22951791Y-26395416D01*
X22924500Y-26497266D01*
X22924500Y-26602733D01*
X22951791Y-26704583D01*
X22951796Y-26704593D01*
X23004519Y-26795912D01*
X23069039Y-26860432D01*
X23098220Y-26917702D01*
X23099500Y-26933971D01*
X23099500Y-27354800D01*
X23134994Y-27440489D01*
X23141443Y-27456057D01*
X23141443Y-27456058D01*
X23618942Y-27933558D01*
X23647695Y-27945468D01*
X23647716Y-27945476D01*
X23647726Y-27945480D01*
X23720200Y-27975500D01*
X24258534Y-27975500D01*
X24319664Y-27995362D01*
X24357444Y-28047362D01*
X24357444Y-28111638D01*
X24319664Y-28163638D01*
X24298331Y-28175584D01*
X24295410Y-28176793D01*
X24204087Y-28229519D01*
X24129519Y-28304087D01*
X24076796Y-28395406D01*
X24076791Y-28395416D01*
X24049500Y-28497266D01*
X24049500Y-28517806D01*
X24029638Y-28578936D01*
X24019039Y-28591345D01*
X23911986Y-28698397D01*
X23854716Y-28727578D01*
X23826465Y-28728165D01*
X23794867Y-28724500D01*
X23445129Y-28724500D01*
X23420011Y-28727414D01*
X23420005Y-28727416D01*
X23342006Y-28761856D01*
X23278063Y-28768377D01*
X23257997Y-28761858D01*
X23179991Y-28727415D01*
X23179988Y-28727414D01*
X23179987Y-28727414D01*
X23179986Y-28727413D01*
X23154865Y-28724500D01*
X22805129Y-28724500D01*
X22780011Y-28727414D01*
X22780008Y-28727415D01*
X22677233Y-28772795D01*
X22677231Y-28772796D01*
X22597796Y-28852231D01*
X22597793Y-28852235D01*
X22552414Y-28955009D01*
X22552413Y-28955013D01*
X22549500Y-28980134D01*
X22549500Y-29073626D01*
X22529638Y-29134756D01*
X22477638Y-29172536D01*
X22413362Y-29172536D01*
X22393500Y-29163693D01*
X22329588Y-29126793D01*
X22329583Y-29126791D01*
X22227733Y-29099500D01*
X22227727Y-29099500D01*
X22122273Y-29099500D01*
X22122266Y-29099500D01*
X22020416Y-29126791D01*
X22020406Y-29126796D01*
X21929087Y-29179519D01*
X21854519Y-29254087D01*
X21801796Y-29345406D01*
X21801791Y-29345416D01*
X21774500Y-29447266D01*
X21774500Y-29552733D01*
X21801792Y-29654587D01*
X21802255Y-29655703D01*
X21802322Y-29656565D01*
X21803557Y-29661171D01*
X21802703Y-29661399D01*
X21807297Y-29719780D01*
X21773712Y-29774583D01*
X21714329Y-29799180D01*
X21706171Y-29799500D01*
X20508190Y-29799500D01*
X20491920Y-29798219D01*
X20423718Y-29787416D01*
X20392773Y-29777362D01*
X20338634Y-29749777D01*
X20312310Y-29730651D01*
X20269348Y-29687689D01*
X20250222Y-29661365D01*
X20246768Y-29654587D01*
X20222637Y-29607226D01*
X20212582Y-29576280D01*
X20201780Y-29508079D01*
X20200500Y-29491810D01*
X20200500Y-25980206D01*
X25400000Y-25980206D01*
X25400000Y-26020000D01*
X25725000Y-26020000D01*
X25725000Y-25725000D01*
X25724999Y-25724999D01*
X25655215Y-25725000D01*
X25630122Y-25727911D01*
X25527521Y-25773213D01*
X25448213Y-25852521D01*
X25402909Y-25955125D01*
X25402908Y-25955129D01*
X25400000Y-25980206D01*
X20200500Y-25980206D01*
X20200500Y-25142578D01*
X20220362Y-25081448D01*
X20230960Y-25069040D01*
X20243215Y-25056785D01*
X20263471Y-25036528D01*
X20279223Y-25023601D01*
X20285958Y-25019100D01*
X20323444Y-25003576D01*
X20331378Y-25001998D01*
X20351665Y-25000000D01*
X23733571Y-25000000D01*
X23794701Y-25019862D01*
G37*
%TD.AperFunction*%
%TA.AperFunction,Conductor*%
G36*
X29068622Y-25001997D02*
G01*
X29076559Y-25003576D01*
X29114043Y-25019102D01*
X29120771Y-25023597D01*
X29136532Y-25036532D01*
X29163467Y-25063467D01*
X29176404Y-25079231D01*
X29180897Y-25085956D01*
X29196421Y-25123431D01*
X29198000Y-25131365D01*
X29200000Y-25151665D01*
X29200000Y-25234271D01*
X29191139Y-25276277D01*
X29167415Y-25330007D01*
X29167413Y-25330014D01*
X29164500Y-25355134D01*
X29164500Y-25644870D01*
X29167414Y-25669988D01*
X29167417Y-25669997D01*
X29191138Y-25723720D01*
X29200000Y-25765728D01*
X29200000Y-25992306D01*
X29180138Y-26053436D01*
X29169539Y-26065845D01*
X28743942Y-26491443D01*
X28666443Y-26568941D01*
X28624500Y-26670200D01*
X28624500Y-27567806D01*
X28604638Y-27628936D01*
X28594039Y-27641345D01*
X28416346Y-27819039D01*
X28359076Y-27848220D01*
X28342807Y-27849500D01*
X27540009Y-27849500D01*
X27478879Y-27829638D01*
X27441099Y-27777638D01*
X27439553Y-27718582D01*
X27450500Y-27677727D01*
X27450500Y-27572273D01*
X27450499Y-27572266D01*
X27423208Y-27470416D01*
X27423207Y-27470415D01*
X27423207Y-27470413D01*
X27411133Y-27449500D01*
X27397959Y-27426681D01*
X27384595Y-27363810D01*
X27410738Y-27305092D01*
X27462602Y-27275147D01*
X27462329Y-27274143D01*
X27466136Y-27273107D01*
X27466402Y-27272954D01*
X27467149Y-27272831D01*
X27469872Y-27272090D01*
X27572478Y-27226786D01*
X27572482Y-27226784D01*
X27651784Y-27147482D01*
X27651786Y-27147478D01*
X27697090Y-27044874D01*
X27697091Y-27044870D01*
X27700000Y-27019793D01*
X27700000Y-26950000D01*
X27404000Y-26950000D01*
X27342870Y-26930138D01*
X27305090Y-26878138D01*
X27300000Y-26846000D01*
X27300000Y-26844000D01*
X27319862Y-26782870D01*
X27371862Y-26745090D01*
X27404000Y-26740000D01*
X27699999Y-26740000D01*
X27699999Y-26670216D01*
X27697088Y-26645121D01*
X27662871Y-26567626D01*
X27656349Y-26503682D01*
X27662871Y-26483610D01*
X27665258Y-26478206D01*
X27697585Y-26404991D01*
X27700500Y-26379865D01*
X27700499Y-26030136D01*
X27700499Y-26030129D01*
X27697585Y-26005011D01*
X27697585Y-26005009D01*
X27652206Y-25902235D01*
X27652204Y-25902233D01*
X27652203Y-25902231D01*
X27630961Y-25880989D01*
X27601780Y-25823719D01*
X27600500Y-25807450D01*
X27600500Y-25782254D01*
X27618285Y-25727516D01*
X27617072Y-25726816D01*
X27634613Y-25696434D01*
X27673207Y-25629587D01*
X27676091Y-25618822D01*
X27700499Y-25527733D01*
X27700500Y-25527726D01*
X27700500Y-25422273D01*
X27700499Y-25422266D01*
X27673208Y-25320416D01*
X27673207Y-25320415D01*
X27673207Y-25320413D01*
X27668433Y-25312145D01*
X27620480Y-25229087D01*
X27568932Y-25177539D01*
X27539751Y-25120269D01*
X27549806Y-25056785D01*
X27595256Y-25011335D01*
X27642471Y-25000000D01*
X29048335Y-25000000D01*
X29068622Y-25001997D01*
G37*
%TD.AperFunction*%
%TD*%
%TA.AperFunction,Conductor*%
%TO.N,Net-(J3-Pin_1)*%
G36*
X39418192Y-21457535D02*
G01*
X39432825Y-21463596D01*
X39479351Y-21503333D01*
X39486401Y-21517170D01*
X39492463Y-21531804D01*
X39497265Y-21592798D01*
X39494054Y-21598038D01*
X39500000Y-23830044D01*
X39492463Y-23868197D01*
X39486402Y-23882828D01*
X39446663Y-23929352D01*
X39432830Y-23936401D01*
X39425448Y-23939458D01*
X39418197Y-23942462D01*
X39380309Y-23950000D01*
X35551173Y-23950000D01*
X35531854Y-23948097D01*
X35528794Y-23947488D01*
X35522460Y-23946228D01*
X35486779Y-23931447D01*
X35478820Y-23926129D01*
X35463817Y-23913817D01*
X35411182Y-23861182D01*
X35398870Y-23846179D01*
X35393552Y-23838220D01*
X35378769Y-23802529D01*
X35376901Y-23793136D01*
X35375000Y-23773826D01*
X35375000Y-22251173D01*
X35376901Y-22231863D01*
X35378770Y-22222467D01*
X35393550Y-22186781D01*
X35398876Y-22178812D01*
X35411174Y-22163825D01*
X35629606Y-21945393D01*
X35668224Y-21923098D01*
X35667887Y-21922284D01*
X35673878Y-21919801D01*
X35673886Y-21919799D01*
X35776613Y-21860489D01*
X35860489Y-21776613D01*
X35919799Y-21673886D01*
X35919801Y-21673878D01*
X35922284Y-21667887D01*
X35923098Y-21668224D01*
X35945393Y-21629606D01*
X36088825Y-21486174D01*
X36103812Y-21473876D01*
X36111781Y-21468550D01*
X36147467Y-21453770D01*
X36156865Y-21451900D01*
X36176173Y-21450000D01*
X39380309Y-21450000D01*
X39418192Y-21457535D01*
G37*
%TD.AperFunction*%
%TD*%
%TA.AperFunction,Conductor*%
%TO.N,Net-(J4-Pin_1)*%
G36*
X39562280Y-24427373D02*
G01*
X39564386Y-24427791D01*
X39568145Y-24428537D01*
X39621774Y-24453586D01*
X39623967Y-24455352D01*
X39663835Y-24512731D01*
X39664514Y-24531582D01*
X39666553Y-24531268D01*
X39673359Y-24575410D01*
X39674807Y-24594300D01*
X39674999Y-28863071D01*
X39672599Y-28887356D01*
X39671407Y-28893326D01*
X39646259Y-28946977D01*
X39641816Y-28952476D01*
X39584372Y-28992250D01*
X39569641Y-28996146D01*
X39562358Y-28997600D01*
X39538081Y-29000000D01*
X36759722Y-29000000D01*
X36747513Y-28999397D01*
X36747066Y-28999353D01*
X36746257Y-28999273D01*
X36711019Y-28990438D01*
X36698976Y-28985450D01*
X36667735Y-28966720D01*
X36666751Y-28965912D01*
X36657761Y-28957761D01*
X36167235Y-28467235D01*
X36159094Y-28458257D01*
X36158294Y-28457283D01*
X36139548Y-28426014D01*
X36134546Y-28413933D01*
X36125706Y-28378551D01*
X36125586Y-28377327D01*
X36125000Y-28365289D01*
X36125000Y-27819702D01*
X37000000Y-27819702D01*
X37011602Y-27878033D01*
X37011603Y-27878034D01*
X37011603Y-27878035D01*
X37011605Y-27878037D01*
X37055808Y-27944191D01*
X37121961Y-27988393D01*
X37121963Y-27988395D01*
X37121966Y-27988397D01*
X37177342Y-27999412D01*
X37179557Y-27999908D01*
X37180299Y-28000000D01*
X37180301Y-28000000D01*
X37825000Y-28000000D01*
X38575000Y-28000000D01*
X39219657Y-28000000D01*
X39219699Y-28000000D01*
X39219702Y-27999999D01*
X39278033Y-27988397D01*
X39278034Y-27988396D01*
X39344191Y-27944191D01*
X39388396Y-27878034D01*
X39388397Y-27878033D01*
X39399999Y-27819702D01*
X39400000Y-27819699D01*
X39400000Y-27175000D01*
X38575000Y-27175000D01*
X38575000Y-28000000D01*
X37825000Y-28000000D01*
X37825000Y-27175000D01*
X37000000Y-27175000D01*
X37000000Y-27819702D01*
X36125000Y-27819702D01*
X36125000Y-25780297D01*
X37000000Y-25780297D01*
X37000000Y-26425000D01*
X37825000Y-26425000D01*
X38575000Y-26425000D01*
X39400000Y-26425000D01*
X39400000Y-25780301D01*
X39399999Y-25780297D01*
X39388397Y-25721966D01*
X39388396Y-25721965D01*
X39358634Y-25677423D01*
X39344191Y-25655807D01*
X39288189Y-25618388D01*
X39283445Y-25614495D01*
X39278034Y-25611603D01*
X39278033Y-25611602D01*
X39219702Y-25600000D01*
X39219700Y-25600000D01*
X38575000Y-25600000D01*
X38575000Y-26425000D01*
X37825000Y-26425000D01*
X37825000Y-25600000D01*
X37180299Y-25600000D01*
X37180297Y-25600000D01*
X37121966Y-25611602D01*
X37121965Y-25611602D01*
X37121964Y-25611603D01*
X37116554Y-25614494D01*
X37111810Y-25618388D01*
X37055808Y-25655808D01*
X37037525Y-25683168D01*
X37037524Y-25683170D01*
X37011603Y-25721965D01*
X37011602Y-25721966D01*
X37000000Y-25780297D01*
X36125000Y-25780297D01*
X36125000Y-25034716D01*
X36125596Y-25022576D01*
X36125717Y-25021346D01*
X36134551Y-24986054D01*
X36139548Y-24973984D01*
X36158227Y-24942797D01*
X36159030Y-24941818D01*
X36167219Y-24932779D01*
X36632779Y-24467219D01*
X36641777Y-24459064D01*
X36642750Y-24458265D01*
X36673982Y-24439549D01*
X36686067Y-24434546D01*
X36721371Y-24425714D01*
X36722593Y-24425594D01*
X36734711Y-24425000D01*
X39538137Y-24425000D01*
X39562280Y-24427373D01*
G37*
%TD.AperFunction*%
%TD*%
M02*
