M48
; DRILL file KiCad 10.0.0 date 2026-07-07T19:25:31
; FORMAT={-:-/ absolute / metric / decimal}
; #@! TF.CreationDate,2026-07-07T19:25:31+01:00
; #@! TF.GenerationSoftware,Kicad,Pcbnew,10.0.0
; #@! TF.FileFunction,Plated,1,2,PTH
FMAT,2
METRIC
; #@! TA.AperFunction,Plated,PTH,ViaDrill
T1C0.300
%
G90
G05
T1
X20.6Y-20.6
X21.125Y-29.525
X21.9Y-20.6
X22.1Y-26.8
X22.15Y-28.85
X22.175Y-29.5
X22.999Y-27.524
X23.325Y-26.55
X23.45Y-20.6
X23.55Y-22.88
X24.07Y-22.88
X24.101Y-25.451
X24.45Y-28.55
X24.6Y-23.7
X24.8Y-24.775
X24.9Y-20.6
X25.06Y-25.259
X25.15Y-21.75
X25.175Y-28.275
X25.35Y-23.7
X25.725Y-25.175
X25.825Y-27.725
X26.35Y-28.125
X26.375Y-24.25
X26.732Y-25.182
X26.875Y-24.625
X26.95Y-21.4
X27.05Y-27.625
X27.1Y-22.65
X27.3Y-20.5
X27.3Y-25.475
X27.599Y-27.599
X28.05Y-25.8
X28.75Y-20.5
X28.825Y-23.125
X28.975Y-28.5
X29.9Y-26.9
X29.9Y-27.95
X29.9Y-29.05
X30.0Y-24.6
X30.15Y-20.5
X30.8Y-25.35
X31.3Y-24.65
X31.75Y-25.35
X32.25Y-24.65
X32.7Y-25.35
X33.05Y-23.25
X33.7Y-26.15
X33.7Y-27.8
X33.8Y-21.5
X33.8Y-24.4
X33.85Y-29.45
X34.6Y-20.6
X34.65Y-23.55
X35.25Y-24.65
X35.5Y-21.5
X35.8Y-22.4
X35.8Y-23.55
X36.15Y-29.45
X36.55Y-21.85
X36.55Y-23.55
X37.35Y-28.7
X37.4Y-24.85
X38.3Y-24.85
X38.3Y-28.7
X39.2Y-24.85
X39.2Y-28.7
M30
